<svg width="48" height="48" viewBox="0 0 48 48" fill="none" xmlns="http://www.w3.org/2000/svg">
<g clip-path="url(#clip0_612_284)">
<path d="M30.1746 19.6892C29.6561 18.8588 28.9576 18.1555 28.1309 17.6312C27.3041 17.1069 26.3701 16.775 25.3979 16.6601C24.4198 16.4868 23.4162 16.5217 22.4526 16.7626C21.489 17.0035 20.587 17.445 19.8056 18.0582C19.0085 18.613 18.3301 19.3213 17.81 20.1414C17.2898 20.9616 16.9385 21.8773 16.7765 22.8349C16.6107 23.8055 16.6386 24.7993 16.8585 25.759C17.0785 26.7188 17.4861 27.6256 18.058 28.4271C18.8929 29.6505 20.0763 30.5947 21.4546 31.137C22.8328 31.6792 24.3423 31.7945 25.787 31.4679C27.2316 31.1413 28.5447 30.3878 29.5557 29.3054C30.5667 28.223 31.2288 26.8616 31.4561 25.398C31.7464 23.4022 31.2901 21.3695 30.1746 19.6892Z" fill="#00C5DE"/>
<path d="M15.2612 40.3109C17.6419 42.8649 20.1705 45.2768 22.8341 47.5342C23.1756 47.7876 23.577 47.9482 23.9991 48.0002C24.4618 47.9695 24.9063 47.8079 25.2807 47.5342C27.9723 45.3082 30.5029 42.8944 32.8535 40.3109C33.1676 40.0164 33.3642 39.618 33.4071 39.1895C33.4499 38.7611 33.336 38.3317 33.0865 37.9808C32.6205 37.3983 32.1545 36.9322 31.6885 36.3497C31.5527 36.2141 31.388 36.1111 31.2067 36.0482C31.0255 35.9853 30.8323 35.9643 30.6418 35.9867C30.4512 36.0092 30.2682 36.0744 30.1065 36.1776C29.9447 36.2809 29.8085 36.4193 29.7079 36.5827C29.0089 37.2818 28.4263 37.9808 27.7273 38.6798C26.717 39.5804 25.4108 40.078 24.0574 40.078C22.704 40.078 21.3978 39.5804 20.3875 38.6798C19.6884 37.9808 19.1059 37.2818 18.4069 36.5827C18.1589 36.2749 17.7992 36.0776 17.4064 36.034C17.0135 35.9903 16.6193 36.1038 16.3098 36.3497C15.8729 36.9177 15.4062 37.4622 14.9117 37.9808C14.7083 38.3543 14.6323 38.7839 14.6954 39.2045C14.7585 39.6251 14.9572 40.0136 15.2612 40.3109Z" fill="white"/>
<path d="M40.3114 32.738C42.8654 30.3573 45.2773 27.8287 47.5347 25.1651C47.8084 24.7908 47.97 24.3463 48.0007 23.8836C47.97 23.4209 47.8084 22.9764 47.5347 22.602C45.3087 19.9104 42.8949 17.3798 40.3114 15.0292C40.0168 14.7151 39.6185 14.5185 39.19 14.4756C38.7616 14.4328 38.3322 14.5467 37.9813 14.7962C37.3988 15.2622 36.9327 15.7282 36.3502 16.1942C36.2146 16.33 36.1115 16.4947 36.0487 16.676C35.9858 16.8572 35.9648 17.0504 35.9872 17.241C36.0096 17.4315 36.0749 17.6145 36.1781 17.7762C36.2813 17.938 36.4198 18.0742 36.5832 18.1748C37.2823 18.8739 37.9813 19.4564 38.6803 20.1554C39.5809 21.1657 40.0785 22.4719 40.0785 23.8253C40.0785 25.1788 39.5809 26.4849 38.6803 27.4952C37.9813 28.1943 37.2823 28.7768 36.5832 29.4758C36.4321 29.5863 36.3054 29.7268 36.2111 29.8884C36.1168 30.0501 36.0568 30.2294 36.0349 30.4153C36.013 30.6012 36.0298 30.7896 36.084 30.9687C36.1383 31.1479 36.2289 31.3139 36.3502 31.4564C36.9182 31.8933 37.4627 32.36 37.9813 32.8545C38.306 33.1474 38.7336 33.2997 39.1704 33.2778C39.6072 33.256 40.0175 33.0619 40.3114 32.738Z" fill="white"/>
<path d="M32.8539 7.68934C30.5033 5.1058 27.9727 2.69199 25.2811 0.46602C24.9395 0.212605 24.5381 0.0520444 24.116 0C23.6533 0.0307456 23.2088 0.192364 22.8344 0.46602C20.1428 2.69199 17.6122 5.1058 15.2616 7.68934C14.9476 7.98388 14.7509 8.38226 14.7081 8.81069C14.6652 9.23911 14.7791 9.66854 15.0286 10.0194C15.4946 10.602 15.9606 11.068 16.4267 11.6505C16.5624 11.7861 16.7271 11.8892 16.9084 11.952C17.0897 12.0149 17.2828 12.0359 17.4734 12.0135C17.6639 11.9911 17.8469 11.9258 18.0087 11.8226C18.1704 11.7194 18.3067 11.5809 18.4073 11.4175C19.1063 10.7185 19.6888 10.0194 20.3878 9.32041C21.4027 8.46374 22.6934 8.00356 24.0213 8.02498C25.3492 8.0464 26.6245 8.54797 27.6112 9.43692C28.3102 10.1359 28.8927 10.835 29.5917 11.534C29.7022 11.6851 29.8427 11.8118 30.0043 11.9061C30.166 12.0005 30.3453 12.0605 30.5312 12.0823C30.7171 12.1042 30.9055 12.0875 31.0847 12.0332C31.2638 11.979 31.4298 11.8883 31.5723 11.767C32.0384 11.1845 32.5044 10.7185 32.9704 10.1359C33.2119 9.7681 33.3307 9.33324 33.3097 8.89371C33.2888 8.45419 33.1292 8.03258 32.8539 7.68934Z" fill="white"/>
<path d="M7.68934 15.2621C5.13535 17.6428 2.72342 20.1714 0.46602 22.8349C0.212605 23.1765 0.0520444 23.5779 0 24C0.0307456 24.4627 0.192364 24.9072 0.46602 25.2815C2.69199 27.9732 5.1058 30.5038 7.68934 32.8544C7.98388 33.1684 8.38226 33.3651 8.81069 33.4079C9.23911 33.4508 9.66855 33.3369 10.0194 33.0874C10.5874 32.6505 11.1319 32.1838 11.6505 31.6893C11.7861 31.5536 11.8892 31.3889 11.952 31.2076C12.0149 31.0263 12.0359 30.8332 12.0135 30.6426C11.9911 30.4521 11.9258 30.2691 11.8226 30.1073C11.7194 29.9456 11.5809 29.8093 11.4175 29.7087C10.7185 29.0097 10.0194 28.4272 9.32041 27.7282C8.41985 26.7178 7.9222 25.4117 7.9222 24.0582C7.9222 22.7048 8.41985 21.3986 9.32041 20.3883C10.0194 19.6893 10.7185 19.1068 11.4175 18.4077C11.5686 18.2973 11.6953 18.1568 11.7896 17.9952C11.884 17.8335 11.9439 17.6541 11.9658 17.4683C11.9877 17.2824 11.971 17.094 11.9167 16.9148C11.8625 16.7357 11.7718 16.5697 11.6505 16.4272C11.0825 15.9903 10.5381 15.5236 10.0194 15.0291C9.66855 14.7796 9.23911 14.6657 8.81069 14.7085C8.38226 14.7514 7.98388 14.9481 7.68934 15.2621Z" fill="white"/>
</g>
<defs>
<clipPath id="clip0_612_284">
<rect width="48" height="48" fill="white"/>
</clipPath>
</defs>
</svg>
