<svg width="42" height="42" viewBox="0 0 42 42" fill="none" xmlns="http://www.w3.org/2000/svg">
<path d="M25.9001 16.9C25.455 16.1873 24.8555 15.5836 24.1459 15.1335C23.4362 14.6835 22.6346 14.3987 21.8001 14.3C20.9606 14.1513 20.0992 14.1813 19.2721 14.388C18.445 14.5948 17.6708 14.9737 17.0001 15.5C16.3159 15.9763 15.7336 16.5842 15.2871 17.2882C14.8407 17.9922 14.5391 18.7781 14.4001 19.6C14.2578 20.4331 14.2817 21.2861 14.4705 22.1099C14.6593 22.9337 15.0092 23.712 15.5001 24.4C16.2166 25.4501 17.2324 26.2605 18.4154 26.726C19.5984 27.1914 20.8941 27.2904 22.1341 27.01C23.3741 26.7297 24.5011 26.083 25.3688 25.1539C26.2366 24.2248 26.8049 23.0563 27.0001 21.8C27.2492 20.087 26.8575 18.3422 25.9001 16.9Z" fill="#00C5DE"/>
<path d="M13.0999 34.5999C15.1433 36.7921 17.3137 38.8623 19.5999 40.7999C19.8931 41.0174 20.2376 41.1552 20.5999 41.1999C20.9971 41.1735 21.3786 41.0348 21.6999 40.7999C24.0102 38.8893 26.1823 36.8174 28.1999 34.5999C28.4695 34.3471 28.6383 34.0051 28.675 33.6374C28.7118 33.2697 28.6141 32.9011 28.3999 32.5999C27.9999 32.0999 27.5999 31.6999 27.1999 31.1999C27.0834 31.0835 26.942 30.995 26.7864 30.9411C26.6308 30.8871 26.465 30.8691 26.3015 30.8883C26.1379 30.9076 25.9809 30.9636 25.842 31.0522C25.7032 31.1408 25.5862 31.2597 25.4999 31.3999C24.8999 31.9999 24.3999 32.5999 23.7999 33.1999C22.9327 33.9729 21.8116 34.4 20.6499 34.4C19.4882 34.4 18.3671 33.9729 17.4999 33.1999C16.8999 32.5999 16.3999 31.9999 15.7999 31.3999C15.587 31.1357 15.2783 30.9664 14.9411 30.9289C14.6039 30.8914 14.2656 30.9888 13.9999 31.1999C13.6249 31.6874 13.2244 32.1548 12.7999 32.5999C12.6253 32.9205 12.5601 33.2893 12.6142 33.6502C12.6684 34.0112 12.8389 34.3447 13.0999 34.5999Z" fill="white"/>
<path d="M34.5999 28.1002C36.7921 26.0568 38.8623 23.8864 40.7999 21.6002C41.0348 21.2789 41.1735 20.8974 41.1999 20.5002C41.1735 20.103 41.0348 19.7216 40.7999 19.4002C38.8893 17.0899 36.8174 14.9178 34.5999 12.9002C34.3471 12.6306 34.0051 12.4618 33.6374 12.4251C33.2697 12.3883 32.9011 12.486 32.5999 12.7002C32.0999 13.1002 31.6999 13.5002 31.1999 13.9002C31.0835 14.0167 30.995 14.1581 30.9411 14.3137C30.8871 14.4693 30.8691 14.6351 30.8883 14.7986C30.9076 14.9622 30.9636 15.1193 31.0522 15.2581C31.1408 15.3969 31.2597 15.5139 31.3999 15.6002C31.9999 16.2002 32.5999 16.7002 33.1999 17.3002C33.9729 18.1674 34.4 19.2885 34.4 20.4502C34.4 21.6119 33.9729 22.733 33.1999 23.6002C32.5999 24.2002 31.9999 24.7002 31.3999 25.3002C31.2702 25.395 31.1615 25.5156 31.0805 25.6543C30.9995 25.7931 30.948 25.947 30.9293 26.1066C30.9105 26.2662 30.9248 26.4279 30.9714 26.5816C31.018 26.7354 31.0958 26.8779 31.1999 27.0002C31.6874 27.3752 32.1548 27.7758 32.5999 28.2002C32.8786 28.4517 33.2457 28.5823 33.6206 28.5636C33.9955 28.5448 34.3477 28.3782 34.5999 28.1002Z" fill="white"/>
<path d="M28.1999 6.6C26.1823 4.38247 24.0102 2.31062 21.6999 0.4C21.4067 0.182486 21.0622 0.0446713 20.6999 0C20.3027 0.0263899 19.9213 0.165112 19.5999 0.4C17.2896 2.31062 15.1175 4.38247 13.0999 6.6C12.8303 6.85281 12.6615 7.19476 12.6248 7.56249C12.588 7.93022 12.6857 8.29881 12.8999 8.6C13.2999 9.1 13.6999 9.5 14.0999 10C14.2164 10.1164 14.3578 10.2049 14.5134 10.2588C14.669 10.3128 14.8348 10.3308 14.9983 10.3116C15.1619 10.2923 15.319 10.2363 15.4578 10.1477C15.5966 10.0591 15.7136 9.94024 15.7999 9.8C16.3999 9.2 16.8999 8.6 17.4999 8C18.371 7.26469 19.4789 6.86971 20.6186 6.88809C21.7584 6.90647 22.853 7.33699 23.6999 8.1C24.2999 8.7 24.7999 9.3 25.3999 9.9C25.4947 10.0297 25.6153 10.1384 25.754 10.2194C25.8928 10.3004 26.0468 10.3519 26.2063 10.3706C26.3659 10.3894 26.5276 10.3751 26.6813 10.3285C26.8351 10.2819 26.9776 10.2041 27.0999 10.1C27.4999 9.6 27.8999 9.2 28.2999 8.7C28.5072 8.38427 28.6091 8.01101 28.5912 7.63375C28.5732 7.25649 28.4362 6.89461 28.1999 6.6Z" fill="white"/>
<path d="M6.6 13.0999C4.40783 15.1433 2.3376 17.3137 0.4 19.5999C0.182485 19.8931 0.0446713 20.2376 0 20.5999C0.0263899 20.9971 0.165112 21.3786 0.4 21.6999C2.31062 24.0102 4.38247 26.1823 6.6 28.1999C6.85281 28.4695 7.19476 28.6383 7.56249 28.675C7.93022 28.7118 8.29881 28.6141 8.6 28.3999C9.08754 28.0249 9.55486 27.6244 10 27.1999C10.1164 27.0834 10.2049 26.942 10.2588 26.7864C10.3128 26.6308 10.3308 26.465 10.3116 26.3015C10.2923 26.1379 10.2363 25.9809 10.1477 25.842C10.0591 25.7032 9.94024 25.5862 9.8 25.4999C9.2 24.8999 8.6 24.3999 8 23.7999C7.22702 22.9327 6.79987 21.8116 6.79987 20.6499C6.79987 19.4882 7.22702 18.3671 8 17.4999C8.6 16.8999 9.2 16.3999 9.8 15.7999C9.92969 15.7051 10.0384 15.5845 10.1194 15.4458C10.2004 15.307 10.2519 15.1531 10.2706 14.9935C10.2894 14.834 10.2751 14.6723 10.2285 14.5185C10.1819 14.3647 10.1041 14.2222 10 14.0999C9.51246 13.7249 9.04514 13.3244 8.6 12.8999C8.29881 12.6857 7.93022 12.588 7.56249 12.6248C7.19476 12.6615 6.85281 12.8303 6.6 13.0999Z" fill="white"/>
</svg>
