<svg xmlns="http://www.w3.org/2000/svg" xmlns:xlink="http://www.w3.org/1999/xlink" width="45" height="45" viewBox="0 0 100 100">
  <defs>
    <clipPath id="clip-communication">
      <rect width="100" height="100"/>
    </clipPath>
  </defs>
  <g id="communication" clip-path="url(#clip-communication)">
    <g id="react" transform="translate(0 -16.482)">
      <g id="Group_1" data-name="Group 1" transform="translate(0 20.482)">
        <path id="Path_1" data-name="Path 1" d="M100,68.451c0-7.95-7.405-14.884-19.069-19.325.245-1.92.429-3.812.48-5.631.318-10.871-2.889-18.55-9.023-21.621A13.475,13.475,0,0,0,66.3,20.482c-5.8,0-12.428,3.348-18.9,9.083-7.042-4.382-13.915-6.858-19.746-6.858A14.656,14.656,0,0,0,17.983,25.9c-5.764,4.807-6.6,14.113-3.266,25.069C5.592,55.38,0,61.536,0,68.451c0,7.872,7.255,14.751,18.721,19.2-.045.671-.112,1.36-.132,2.018-.317,10.873,2.89,18.552,9.023,21.625a13.452,13.452,0,0,0,6.091,1.391c6.7,0,14.492-4.441,21.875-11.892,5.987,3.282,11.762,5.118,16.769,5.118a14.66,14.66,0,0,0,9.67-3.2c4.407-3.676,5.919-9.992,4.91-17.651C95.057,80.73,100,74.929,100,68.451ZM66.3,25.034a8.971,8.971,0,0,1,4.052.908c4.4,2.2,6.774,8.551,6.512,17.419-.04,1.389-.158,2.823-.32,4.279A81.23,81.23,0,0,0,65.773,45.2,92.9,92.9,0,0,0,51.26,32.159C56.554,27.646,61.811,25.034,66.3,25.034ZM26.031,73.185c1.6,2.274,3.309,4.545,5.179,6.79a104.029,104.029,0,0,0,7.079,7.664,80.412,80.412,0,0,1-14.7-3.127A72.41,72.41,0,0,1,26.031,73.185Zm-5.6-19.694a69.193,69.193,0,0,1,10.478-3.015c-.96,1.675-1.9,3.382-2.786,5.154-1.2,2.395-2.267,4.807-3.254,7.215A74.827,74.827,0,0,1,20.435,53.491ZM34.709,77.058a96.62,96.62,0,0,1-6.855-9.328A99.273,99.273,0,0,1,32.2,57.667c1.443-2.883,3.009-5.625,4.647-8.237a97.637,97.637,0,0,1,26.647.049c.607.687,1.209,1.373,1.8,2.085a96.453,96.453,0,0,1,7.9,10.928,97.318,97.318,0,0,1-5.39,13A96.087,96.087,0,0,1,60.47,87.78,97.546,97.546,0,0,1,50,88.36c-1.448,0-2.877-.038-4.293-.1A96.043,96.043,0,0,1,34.709,77.058ZM70.478,50.776q2.8.638,5.374,1.431-.41,2.209-.985,4.479C73.517,54.709,72.032,52.737,70.478,50.776Zm1.4,26.758a104.167,104.167,0,0,0,4.285-9.824,61.652,61.652,0,0,1,5.714,14.778A69.045,69.045,0,0,1,66.52,86.927,102.5,102.5,0,0,0,71.874,77.534ZM47.869,35.341a85.077,85.077,0,0,1,10.788,9.027c-2.811-.232-5.69-.378-8.653-.378-3.374,0-6.653.163-9.821.462A75.655,75.655,0,0,1,47.869,35.341ZM20.9,29.4a10.247,10.247,0,0,1,6.752-2.139c4.71,0,10.389,2.019,16.318,5.56a84.386,84.386,0,0,0-9.838,12.4,75.749,75.749,0,0,0-15.2,3.957C16.266,40.293,16.684,32.913,20.9,29.4ZM19.217,82.921c-8.946-3.66-14.665-8.828-14.665-14.471,0-4.98,4.469-9.591,11.668-13.127a80.35,80.35,0,0,0,6.582,13A81.493,81.493,0,0,0,19.217,82.921Zm14.489,25.208a8.989,8.989,0,0,1-4.052-.907c-4.4-2.2-6.77-8.552-6.513-17.422,0-.2.032-.42.041-.62A88.681,88.681,0,0,0,43.9,92.723a79.787,79.787,0,0,0,7.674,5.672C45.354,104.487,38.994,108.129,33.706,108.129ZM54.767,95.021c-1.067-.671-2.138-1.383-3.214-2.147q2.644-.037,5.21-.2C56.1,93.483,55.438,94.265,54.767,95.021Zm24.337,4.2a10.257,10.257,0,0,1-6.754,2.138c-3.976,0-8.646-1.438-13.571-4.014,1.434-1.649,2.845-3.405,4.216-5.265a76.577,76.577,0,0,0,19.618-4.967C83.1,92.472,82.024,96.786,79.1,99.222ZM86.056,80.37a70.133,70.133,0,0,0-7.914-18.5,82.1,82.1,0,0,0,2.042-8.128c9.29,3.674,15.264,8.947,15.264,14.712C95.448,72.88,91.9,77.016,86.056,80.37Z" transform="translate(0 -20.482)" fill="#61dbfb"/>
        <path id="Path_2" data-name="Path 2" d="M227.455,214.514a8.286,8.286,0,1,1-8.287,8.287A8.287,8.287,0,0,1,227.455,214.514Z" transform="translate(-177.453 -177.584)" fill="#61dbfb"/>
      </g>
    </g>
  </g>
</svg>
