<svg xmlns="http://www.w3.org/2000/svg" xmlns:xlink="http://www.w3.org/1999/xlink" width="45" height="45" viewBox="0 0 45 45">
  <defs>
    <clipPath id="clip-Digital_Marketing">
      <rect width="45" height="45"/>
    </clipPath>
  </defs>
  <g id="Digital_Marketing" data-name="Digital Marketing" clip-path="url(#clip-Digital_Marketing)">
    <g id="Digital_Marketing-2" data-name="Digital Marketing" transform="translate(-2 -1)">
      <path id="Path_275" data-name="Path 275" d="M27.82,48.23H26.344V41a.738.738,0,1,0-1.475,0v7.23H5.689V33.475h6.138a.738.738,0,0,0,0-1.475H4.951a.738.738,0,0,0-.738.738V48.23H2.738A.738.738,0,0,0,2,48.967v1.475a3.689,3.689,0,0,0,3.689,3.689h19.18a3.689,3.689,0,0,0,3.689-3.689V48.967A.738.738,0,0,0,27.82,48.23Zm-.738,2.213a2.213,2.213,0,0,1-2.213,2.213H23.393v-.738a.738.738,0,0,0-1.475,0v.738H8.639v-.738a.738.738,0,0,0-1.475,0v.738H5.689a2.213,2.213,0,0,1-2.213-2.213V49.7H27.082Z" transform="translate(0 -8.131)"/>
      <path id="Path_276" data-name="Path 276" d="M52.689,7.475h1.475a.738.738,0,1,0,0-1.475H52.689a2.213,2.213,0,0,0-2.213,2.213v.738h-.738a.738.738,0,0,0,0,1.475h.738v2.213a.738.738,0,1,0,1.475,0V10.426h.738a.738.738,0,1,0,0-1.475h-.738V8.213A.738.738,0,0,1,52.689,7.475Z" transform="translate(-11.59 -1.311)"/>
      <path id="Path_277" data-name="Path 277" d="M55.066,2H46.213A2.213,2.213,0,0,0,44,4.213V5.689a.738.738,0,0,0,1.475,0V4.213a.738.738,0,0,1,.738-.738h8.852a.738.738,0,0,1,.738.738v8.852a.738.738,0,0,1-.738.738H46.213a.738.738,0,0,1-.738-.738V8.639a.738.738,0,0,0-1.475,0v4.426a2.213,2.213,0,0,0,2.213,2.213h8.852a2.213,2.213,0,0,0,2.213-2.213V4.213A2.213,2.213,0,0,0,55.066,2Z" transform="translate(-10.279 -0.262)"/>
      <path id="Path_278" data-name="Path 278" d="M49,40.951A2.951,2.951,0,1,0,51.951,38,2.951,2.951,0,0,0,49,40.951Zm4.426,0a1.475,1.475,0,1,1-1.475-1.475A1.475,1.475,0,0,1,53.426,40.951Z" transform="translate(-11.59 -9.705)"/>
      <path id="Path_279" data-name="Path 279" d="M55.066,33H46.213A2.213,2.213,0,0,0,44,35.213v8.852a2.213,2.213,0,0,0,2.213,2.213h8.852a2.213,2.213,0,0,0,2.213-2.213V42.59a.738.738,0,0,0-1.475,0v1.475a.738.738,0,0,1-.738.738H46.213a.738.738,0,0,1-.738-.738V35.213a.738.738,0,0,1,.738-.738h8.852a.738.738,0,0,1,.738.738v4.426a.738.738,0,0,0,1.475,0V35.213A2.213,2.213,0,0,0,55.066,33Z" transform="translate(-10.279 -8.393)"/>
      <path id="Path_280" data-name="Path 280" d="M24.347,11.792a.734.734,0,0,0,.723.03L29.5,9.608a.738.738,0,0,0,0-1.313L25.07,6.082A.738.738,0,0,0,24,6.738v4.426A.738.738,0,0,0,24.347,11.792Zm1.129-3.858,2.036,1.018L25.475,9.97Z" transform="translate(-5.458 -1.312)"/>
      <path id="Path_281" data-name="Path 281" d="M24.639,14.279A6.639,6.639,0,1,0,18,7.639,6.639,6.639,0,0,0,24.639,14.279Zm0-11.8a5.164,5.164,0,1,1-5.164,5.164,5.164,5.164,0,0,1,5.164-5.164Z" transform="translate(-3.916)"/>
      <path id="Path_282" data-name="Path 282" d="M36.738,21.426a.738.738,0,0,0,.59-.3l2.213-2.951a.738.738,0,0,0-1.18-.885l-2.213,2.951a.738.738,0,0,0,.59,1.18Z" transform="translate(-8.462 -4.197)" fill="#00c5de"/>
      <path id="Path_283" data-name="Path 283" d="M39.148,25.393a.738.738,0,0,0,1.033.148l2.951-2.213a.738.738,0,0,0-.885-1.18L39.3,24.361a.738.738,0,0,0-.148,1.033Z" transform="translate(-9.199 -5.508)" fill="#00c5de"/>
      <path id="Path_284" data-name="Path 284" d="M47.136,28.584a.738.738,0,0,0-.885-.59l-3.689.738a.741.741,0,0,0,.148,1.475h.148l3.689-.738a.738.738,0,0,0,.59-.885Z" transform="translate(-9.908 -7.076)" fill="#00c5de"/>
      <path id="Path_285" data-name="Path 285" d="M2.738,24.279H11.59a.738.738,0,0,0,.738-.738v-11.8A.738.738,0,0,0,11.59,11H2.738A.738.738,0,0,0,2,11.738v11.8A.738.738,0,0,0,2.738,24.279Zm.738-11.8h7.377V22.8H3.475Z" transform="translate(0 -2.623)"/>
      <path id="Path_286" data-name="Path 286" d="M10.213,15H8.738a.738.738,0,0,0,0,1.475h1.475a.738.738,0,1,0,0-1.475Z" transform="translate(-1.574 -3.672)"/>
      <path id="Path_287" data-name="Path 287" d="M9.689,19H6.738a.738.738,0,0,0,0,1.475H9.689a.738.738,0,1,0,0-1.475Z" transform="translate(-1.049 -4.721)"/>
      <path id="Path_288" data-name="Path 288" d="M9.689,23H6.738a.738.738,0,1,0,0,1.475H9.689a.738.738,0,1,0,0-1.475Z" transform="translate(-1.049 -5.77)"/>
      <path id="Path_289" data-name="Path 289" d="M29.015,27.206a.74.74,0,0,0-1.284.738l3.253,5.629L19.182,38h-.111L17.153,39.1l-1.276.738a1.473,1.473,0,0,1-2.014-.539l-1.475-2.552a1.475,1.475,0,0,1,.553-1.948l2.552-1.475,1.844,3.194a.74.74,0,1,0,1.284-.738l-1.9-3.29,9.258-7.635.3.524a.74.74,0,0,0,1.284-.738l-.738-1.276a.748.748,0,0,0-1.114-.2L15.383,31.683,12.24,33.5a2.951,2.951,0,0,0-1.357,3.342l-.738.42a2.211,2.211,0,0,0,1.107,4.131,2.257,2.257,0,0,0,1.107-.3l.738-.42a2.862,2.862,0,0,0,1.291.767,2.8,2.8,0,0,0,.775.1,2.907,2.907,0,0,0,1.475-.4l.642-.369,1.475,2.56a2.211,2.211,0,1,0,3.829-2.213L21.24,38.788l11.066-4.153a.74.74,0,0,0,.384-1.055ZM11.591,39.813a.737.737,0,1,1-.738-1.276l.642-.369.738,1.276ZM21.3,41.879a.737.737,0,0,1-1.276.738l-1.475-2.56,1.225-.7h.059Z" transform="translate(-1.845 -5.771)" fill="#00c5de"/>
    </g>
  </g>
</svg>
