<svg xmlns="http://www.w3.org/2000/svg" xmlns:xlink="http://www.w3.org/1999/xlink" width="45" height="45" viewBox="0 0 45 45">
  <defs>
    <clipPath id="clip-path">
      <path id="Path_2" data-name="Path 2" d="M2.083-43.631c0,6.189,9.671,11.207,21.6,11.207s21.6-5.018,21.6-11.207-9.671-11.207-21.6-11.207-21.6,5.018-21.6,11.207" transform="translate(-2.083 54.838)"/>
    </clipPath>
    <radialGradient id="radial-gradient" cx="0.628" cy="0.8" r="1.248" gradientTransform="translate(-0.009 0.511) scale(0.526 1)" gradientUnits="objectBoundingBox">
      <stop offset="0" stop-color="#aeb2d5"/>
      <stop offset="0.3" stop-color="#aeb2d5"/>
      <stop offset="0.75" stop-color="#484c89"/>
      <stop offset="1" stop-color="#484c89"/>
    </radialGradient>
    <clipPath id="clip-path-2">
      <path id="Path_4" data-name="Path 4" d="M0-57.792H45v24.965H0Z" transform="translate(0 57.792)"/>
    </clipPath>
    <clipPath id="clip-php">
      <rect width="45" height="45"/>
    </clipPath>
  </defs>
  <g id="php" clip-path="url(#clip-php)">
    <g id="php-2" data-name="php" transform="translate(0 67.792)">
      <g id="Group_1" data-name="Group 1" transform="translate(0.9 -56.516)" clip-path="url(#clip-path)">
        <path id="Path_1" data-name="Path 1" d="M2.083-43.631c0,6.189,9.671,11.207,21.6,11.207s21.6-5.018,21.6-11.207-9.671-11.207-21.6-11.207-21.6,5.018-21.6,11.207" transform="translate(-2.083 54.838)" fill="url(#radial-gradient)"/>
      </g>
      <g id="Group_2" data-name="Group 2" transform="translate(0 -57.792)" clip-path="url(#clip-path-2)">
        <path id="Path_3" data-name="Path 3" d="M24.793-32.163c11.463,0,20.756-4.645,20.756-10.375S36.256-52.912,24.793-52.912,4.037-48.267,4.037-42.537,13.33-32.163,24.793-32.163" transform="translate(-2.293 55.02)" fill="#777bb3"/>
      </g>
      <g id="Group_3" data-name="Group 3" transform="translate(0 -57.792)" clip-path="url(#clip-path-2)">
        <path id="Path_5" data-name="Path 5" d="M22.463-34.429a3.482,3.482,0,0,0,2.091-.509,2.746,2.746,0,0,0,.9-1.722,1.833,1.833,0,0,0-.168-1.568,2.384,2.384,0,0,0-1.71-.438H22.074l-.835,4.238h1.224Zm-4.927,5.22a.235.235,0,0,1-.181-.084.229.229,0,0,1-.049-.191L19.52-40.714a.234.234,0,0,1,.23-.187h4.77a4.227,4.227,0,0,1,3.316,1.193,3.688,3.688,0,0,1,.647,3.307,5.236,5.236,0,0,1-.573,1.573,5.282,5.282,0,0,1-1.055,1.3A4.644,4.644,0,0,1,25.117-32.5a7.971,7.971,0,0,1-2.387.3H20.8l-.552,2.8a.234.234,0,0,1-.23.187H17.536Z" transform="translate(-9.828 48.198)"/>
        <path id="Path_6" data-name="Path 6" d="M21.959-38.74h1.313c1.048,0,1.413.227,1.536.362.205.225.244.7.112,1.369a2.531,2.531,0,0,1-.817,1.583,3.266,3.266,0,0,1-1.948.461h-.94l.744-3.776Zm2.252-2.7h-4.77a.467.467,0,0,0-.46.374L16.768-29.832a.458.458,0,0,0,.1.382.471.471,0,0,0,.362.168h2.48a.467.467,0,0,0,.46-.374l.515-2.612h1.738a8.2,8.2,0,0,0,2.459-.314,4.879,4.879,0,0,0,1.825-1.078,5.5,5.5,0,0,0,1.1-1.361,5.485,5.485,0,0,0,.6-1.641,3.9,3.9,0,0,0-.7-3.5,4.45,4.45,0,0,0-3.493-1.272M20.647-34.5h1.509a3.681,3.681,0,0,0,2.234-.557,2.95,2.95,0,0,0,.991-1.861,2.017,2.017,0,0,0-.224-1.767,2.561,2.561,0,0,0-1.884-.515h-1.7l-.926,4.7m3.565-6.473a3.993,3.993,0,0,1,3.14,1.114,3.459,3.459,0,0,1,.594,3.111,4.985,4.985,0,0,1-.548,1.5A5.025,5.025,0,0,1,26.387-34a4.4,4.4,0,0,1-1.651.977,7.7,7.7,0,0,1-2.314.291H20.3l-.588,2.986h-2.48l2.213-11.231h4.77" transform="translate(-9.52 48.502)" fill="#fff"/>
        <path id="Path_7" data-name="Path 7" d="M48.055-36.12a.235.235,0,0,1-.181-.084.229.229,0,0,1-.049-.191l.979-4.969c.093-.473.07-.812-.065-.955-.083-.088-.33-.235-1.063-.235H45.9l-1.231,6.247a.234.234,0,0,1-.23.187H41.981A.236.236,0,0,1,41.8-36.2a.229.229,0,0,1-.049-.191l2.213-11.231a.234.234,0,0,1,.23-.187h2.461a.236.236,0,0,1,.181.084.229.229,0,0,1,.049.191l-.534,2.711h1.908a4.475,4.475,0,0,1,3.013.773,2.546,2.546,0,0,1,.543,2.521l-1.03,5.226a.234.234,0,0,1-.23.187h-2.5Z" transform="translate(-23.712 52.124)"/>
        <path id="Path_8" data-name="Path 8" d="M46.346-48.349H43.885a.467.467,0,0,0-.46.374L41.212-36.744a.458.458,0,0,0,.1.382.471.471,0,0,0,.362.168h2.461a.467.467,0,0,0,.46-.374l1.194-6.06h1.58c.731,0,.885.154.891.161.044.047.1.265.006.754l-.979,4.969a.458.458,0,0,0,.1.382.471.471,0,0,0,.362.168h2.5a.467.467,0,0,0,.46-.374l1.03-5.226a2.757,2.757,0,0,0-.614-2.735,4.68,4.68,0,0,0-3.172-.834H46.327l.48-2.435a.458.458,0,0,0-.1-.382.471.471,0,0,0-.362-.168m0,.462L45.758-44.9h2.192a4.314,4.314,0,0,1,2.855.712,2.331,2.331,0,0,1,.471,2.307l-1.03,5.226h-2.5l.979-4.969q.167-.848-.123-1.156a1.746,1.746,0,0,0-1.235-.309H45.4l-1.268,6.434H41.672l2.213-11.231h2.461" transform="translate(-23.404 52.428)" fill="#fff"/>
        <path id="Path_9" data-name="Path 9" d="M67.281-34.429a3.482,3.482,0,0,0,2.091-.509,2.746,2.746,0,0,0,.9-1.722,1.832,1.832,0,0,0-.168-1.568,2.384,2.384,0,0,0-1.71-.438H66.892l-.835,4.238h1.224Zm-4.927,5.22a.235.235,0,0,1-.181-.084.229.229,0,0,1-.049-.191l2.213-11.231a.234.234,0,0,1,.23-.187h4.77a4.227,4.227,0,0,1,3.316,1.193A3.688,3.688,0,0,1,73.3-36.4a5.239,5.239,0,0,1-.574,1.573,5.282,5.282,0,0,1-1.055,1.3A4.644,4.644,0,0,1,69.934-32.5a7.971,7.971,0,0,1-2.387.3H65.616l-.551,2.8a.234.234,0,0,1-.23.187h-2.48Z" transform="translate(-35.285 48.198)"/>
        <path id="Path_10" data-name="Path 10" d="M66.777-38.74H68.09c1.048,0,1.413.227,1.536.362.205.225.244.7.112,1.369a2.531,2.531,0,0,1-.817,1.583,3.266,3.266,0,0,1-1.948.461h-.94l.744-3.776Zm2.252-2.7h-4.77a.467.467,0,0,0-.46.374L61.586-29.832a.458.458,0,0,0,.1.382.471.471,0,0,0,.362.168h2.48a.467.467,0,0,0,.46-.374l.515-2.612H67.24a8.2,8.2,0,0,0,2.459-.314,4.879,4.879,0,0,0,1.825-1.078,5.508,5.508,0,0,0,1.1-1.36,5.464,5.464,0,0,0,.6-1.641,3.9,3.9,0,0,0-.7-3.5,4.45,4.45,0,0,0-3.493-1.272M65.464-34.5h1.509a3.681,3.681,0,0,0,2.234-.557A2.95,2.95,0,0,0,70.2-36.92a2.016,2.016,0,0,0-.224-1.767A2.561,2.561,0,0,0,68.09-39.2h-1.7l-.926,4.7m3.565-6.473a3.993,3.993,0,0,1,3.14,1.114,3.459,3.459,0,0,1,.594,3.111,4.985,4.985,0,0,1-.548,1.5A5.025,5.025,0,0,1,71.205-34a4.4,4.4,0,0,1-1.651.977,7.7,7.7,0,0,1-2.314.291H65.115l-.588,2.986h-2.48L64.26-40.974h4.77" transform="translate(-34.977 48.502)" fill="#fff"/>
      </g>
    </g>
  </g>
</svg>
