<svg width="318" height="319" viewBox="0 0 318 319" fill="none" xmlns="http://www.w3.org/2000/svg">
<path d="M159 0.5C246.536 0.5 317.5 71.6852 317.5 159.5C317.5 247.315 246.536 318.5 159 318.5C71.4643 318.5 0.5 247.315 0.5 159.5C0.5 71.6852 71.4643 0.5 159 0.5Z" stroke="white"/>
<path d="M168.363 36.3076C167.42 36.2362 166.577 35.9412 165.833 35.4225C165.089 34.8961 164.513 34.2257 164.105 33.4113C163.704 32.5974 163.539 31.7192 163.611 30.7766C163.683 29.8262 163.978 28.9828 164.496 28.2464C165.022 27.5028 165.692 26.9306 166.506 26.53C167.321 26.1216 168.199 25.9531 169.142 26.0245C170.092 26.0965 170.935 26.3954 171.671 26.9213C172.415 27.4399 172.988 28.1061 173.388 28.92C173.797 29.7266 173.966 30.6051 173.894 31.5555C173.822 32.4981 173.524 33.3412 172.997 34.0848C172.479 34.829 171.812 35.4053 170.998 35.8138C170.192 36.215 169.313 36.3796 168.363 36.3076ZM206.607 50.1998L217.538 28.8337L230.433 35.4308L229.259 37.726L218.952 32.4526L215.258 39.672L224.898 44.6038L223.724 46.899L214.084 41.9672L210.369 49.2283L220.843 54.5871L219.669 56.8823L206.607 50.1998ZM235.89 46.0313L235.026 54.5173L242.852 51.1233L245.425 53.0051L235.42 56.8378L234.798 67.5335L232.225 65.6517L232.868 57.4684L225.264 60.5597L222.691 58.6779L232.62 54.7899L233.318 44.1495L235.89 46.0313ZM241.173 74.1817C240.365 73.3767 239.783 72.4939 239.428 71.5334C239.078 70.5673 238.999 69.6007 239.191 68.6336C239.388 67.6609 239.9 66.7595 240.727 65.9293C241.454 65.1987 242.188 64.7498 242.928 64.5827C243.674 64.41 244.417 64.4335 245.157 64.6531C245.898 64.8726 246.622 65.2082 247.33 65.6599C248.049 66.1115 248.744 66.5936 249.413 67.1061C250.287 67.7784 250.99 68.3295 251.521 68.7594C252.063 69.1892 252.508 69.4508 252.857 69.544C253.21 69.6428 253.544 69.5344 253.859 69.219L253.925 69.1526C254.741 68.3334 255.151 67.4736 255.155 66.5731C255.164 65.6782 254.718 64.7813 253.815 63.8826C252.88 62.9508 251.943 62.425 251.003 62.3052C250.064 62.1855 249.255 62.2505 248.576 62.5004L247.378 59.9836C248.482 59.5396 249.525 59.3774 250.509 59.4971C251.504 59.6167 252.416 59.9188 253.245 60.4034C254.086 60.8879 254.827 61.45 255.469 62.0896C255.879 62.4976 256.3 63.0161 256.732 63.645C257.175 64.274 257.497 64.986 257.697 65.7811C257.903 66.5817 257.871 67.4491 257.602 68.3832C257.334 69.3173 256.695 70.2908 255.686 71.3037L247.316 79.7054L245.356 77.7535L247.077 76.0267L246.977 75.9274C246.568 76.0718 246.052 76.1474 245.428 76.1541C244.804 76.1608 244.124 76.0185 243.389 75.7271C242.653 75.4357 241.915 74.9206 241.173 74.1817ZM243.225 72.7194C244 73.4913 244.805 73.9898 245.64 74.2147C246.48 74.4451 247.275 74.4547 248.026 74.2433C248.783 74.0375 249.426 73.6689 249.955 73.1376L251.741 71.3443C251.559 71.3612 251.285 71.2706 250.92 71.0724C250.567 70.8742 250.177 70.6236 249.751 70.3206C249.336 70.0175 248.935 69.7172 248.547 69.4196C248.171 69.122 247.864 68.8823 247.626 68.7004C247.051 68.2596 246.467 67.8933 245.876 67.6017C245.295 67.31 244.723 67.1757 244.16 67.1989C243.607 67.222 243.083 67.4827 242.587 67.9808C241.909 68.6616 241.648 69.4272 241.804 70.2776C241.971 71.128 242.445 71.942 243.225 72.7194ZM250.492 83.5691L265.445 73.5479L266.932 75.7674L264.596 77.3332L264.727 77.5279C265.734 77.3045 266.691 77.392 267.597 77.7907C268.51 78.185 269.293 78.8689 269.946 79.8423C270.607 80.8288 270.933 81.7998 270.925 82.7554C270.927 83.7131 270.653 84.6444 270.103 85.5493L270.207 85.7051C271.236 85.5704 272.234 85.7337 273.202 86.195C274.176 86.652 275.021 87.4159 275.739 88.4867C276.635 89.8236 276.949 91.1977 276.682 92.609C276.421 94.0158 275.411 95.3086 273.652 96.4873L263.645 103.194L262.106 100.897L272.113 94.19C273.216 93.4506 273.802 92.6203 273.872 91.6993C273.941 90.7782 273.701 89.9088 273.153 89.0911C272.449 88.0397 271.585 87.4384 270.562 87.2871C269.545 87.1314 268.553 87.3775 267.586 88.0256L257.852 94.5498L256.286 92.2135L266.527 85.35C267.377 84.7803 267.877 84.0456 268.026 83.146C268.182 82.242 267.969 81.3553 267.386 80.4856C266.986 79.8886 266.453 79.437 265.787 79.1309C265.125 78.8314 264.406 78.7118 263.628 78.7722C262.861 78.8347 262.111 79.1117 261.377 79.6032L252.032 85.8664L250.492 83.5691ZM266.089 107.521L282.373 99.8509L283.551 102.353L267.267 110.023L266.089 107.521ZM285.686 99.8448C285.456 99.3571 285.424 98.8584 285.59 98.3485C285.759 97.8457 286.077 97.4845 286.543 97.2648C287.01 97.0451 287.491 97.0302 287.986 97.22C288.485 97.417 288.849 97.7593 289.079 98.247C289.308 98.7346 289.339 99.2299 289.17 99.7326C289.004 100.242 288.688 100.607 288.221 100.827C287.755 101.047 287.272 101.058 286.774 100.861C286.278 100.671 285.916 100.332 285.686 99.8448ZM280.296 113.894L270.029 117.335L269.15 114.713L286.217 108.992L287.066 111.526L284.4 112.419L284.474 112.642C285.475 112.751 286.375 113.125 287.174 113.764C287.98 114.4 288.6 115.362 289.032 116.651C289.419 117.807 289.521 118.897 289.337 119.923C289.161 120.946 288.676 121.858 287.882 122.66C287.095 123.459 285.976 124.102 284.524 124.589L273.68 128.224L272.801 125.602L283.467 122.027C284.808 121.577 285.736 120.879 286.25 119.932C286.773 118.982 286.83 117.9 286.423 116.685C286.142 115.848 285.71 115.161 285.126 114.623C284.544 114.093 283.842 113.756 283.019 113.611C282.196 113.467 281.289 113.561 280.296 113.894ZM275.738 140.6C275.457 138.889 275.592 137.35 276.143 135.985C276.704 134.626 277.611 133.499 278.866 132.605C280.129 131.716 281.67 131.123 283.49 130.824C285.309 130.525 286.967 130.593 288.464 131.028C289.969 131.469 291.209 132.224 292.184 133.291C293.168 134.364 293.792 135.703 294.055 137.306C294.207 138.231 294.203 139.17 294.043 140.123C293.883 141.075 293.517 141.979 292.944 142.833C292.38 143.686 291.567 144.425 290.506 145.05C289.445 145.676 288.086 146.125 286.428 146.397L285.272 146.587L283.023 132.896L285.382 132.508L287.175 143.424C288.177 143.26 289.038 142.912 289.759 142.382C290.481 141.86 291.009 141.195 291.343 140.388C291.679 139.589 291.766 138.696 291.604 137.709C291.425 136.622 291.001 135.726 290.331 135.02C289.67 134.321 288.877 133.83 287.951 133.547C287.026 133.263 286.074 133.202 285.095 133.363L283.522 133.621C282.18 133.841 281.081 134.26 280.225 134.875C279.377 135.498 278.778 136.265 278.429 137.177C278.088 138.088 278.008 139.095 278.189 140.197C278.307 140.914 278.514 141.546 278.809 142.091C279.113 142.643 279.505 143.097 279.983 143.454C280.469 143.809 281.039 144.052 281.694 144.182L281.387 146.94C280.447 146.81 279.584 146.472 278.798 145.928C278.02 145.383 277.363 144.66 276.827 143.758C276.298 142.856 275.935 141.803 275.738 140.6ZM278.904 187.326C279.115 186.405 279.533 185.615 280.157 184.956C280.789 184.3 281.538 183.83 282.404 183.548C283.269 183.274 284.162 183.242 285.083 183.454C286.012 183.667 286.802 184.084 287.452 184.707C288.109 185.338 288.575 186.086 288.849 186.951C289.131 187.817 289.167 188.711 288.955 189.632C288.742 190.561 288.321 191.35 287.691 191.999C287.067 192.658 286.323 193.124 285.458 193.399C284.599 193.683 283.705 193.718 282.776 193.505C281.855 193.293 281.066 192.872 280.409 192.24C279.751 191.616 279.281 190.871 278.999 190.005C278.722 189.148 278.691 188.255 278.904 187.326ZM259.506 223.093L279.04 237.037L270.625 248.826L268.526 247.328L275.253 237.904L268.652 233.193L262.362 242.006L260.263 240.509L266.554 231.695L259.915 226.957L253.08 236.533L250.982 235.035L259.506 223.093ZM259.431 252.616L251.151 250.566L253.41 258.791L251.185 261.074L248.798 250.629L238.297 248.508L240.522 246.225L248.533 248.014L246.543 240.05L248.768 237.768L251.22 248.145L261.656 250.334L259.431 252.616ZM229.566 254.748C230.951 253.703 232.376 253.108 233.841 252.962C235.305 252.827 236.724 253.106 238.099 253.801C239.473 254.507 240.715 255.595 241.826 257.067C242.936 258.539 243.646 260.039 243.957 261.566C244.265 263.104 244.174 264.553 243.682 265.912C243.189 267.282 242.294 268.457 240.997 269.435C240.248 270 239.415 270.433 238.497 270.733C237.579 271.034 236.609 271.13 235.587 271.02C234.569 270.917 233.537 270.541 232.49 269.892C231.443 269.243 230.414 268.248 229.402 266.907L228.697 265.972L239.774 257.617L241.213 259.525L232.382 266.187C232.993 266.998 233.701 267.599 234.505 267.99C235.303 268.387 236.137 268.545 237.007 268.466C237.871 268.392 238.702 268.054 239.501 267.452C240.38 266.789 240.976 265.996 241.29 265.075C241.601 264.165 241.667 263.234 241.488 262.283C241.309 261.332 240.921 260.46 240.323 259.668L239.364 258.396C238.545 257.311 237.664 256.532 236.72 256.059C235.775 255.598 234.818 255.425 233.848 255.54C232.883 255.661 231.954 256.058 231.062 256.731C230.482 257.169 230.019 257.645 229.674 258.16C229.327 258.686 229.106 259.243 229.013 259.833C228.924 260.428 228.974 261.046 229.163 261.686L226.578 262.696C226.257 261.804 226.155 260.883 226.271 259.934C226.392 258.991 226.727 258.073 227.276 257.18C227.83 256.292 228.593 255.482 229.566 254.748ZM213.656 264.823C215.146 264.03 216.616 263.699 218.066 263.83C219.516 263.962 220.859 264.49 222.096 265.416C223.332 266.343 224.372 267.599 225.216 269.185C226.075 270.799 226.536 272.381 226.6 273.931C226.66 275.492 226.341 276.905 225.643 278.171C224.941 279.447 223.873 280.466 222.439 281.23C221.321 281.824 220.204 282.153 219.088 282.216C217.971 282.279 216.928 282.091 215.959 281.651C214.99 281.21 214.173 280.53 213.506 279.611L215.948 278.311C216.519 278.937 217.275 279.358 218.213 279.575C219.149 279.803 220.154 279.631 221.23 279.058C222.182 278.552 222.885 277.86 223.338 276.981C223.787 276.114 223.974 275.125 223.897 274.016C223.817 272.917 223.457 271.767 222.819 270.567C222.165 269.34 221.403 268.373 220.533 267.668C219.655 266.967 218.727 266.554 217.749 266.428C216.764 266.306 215.789 266.502 214.823 267.016C214.188 267.354 213.671 267.771 213.271 268.267C212.872 268.762 212.602 269.313 212.464 269.917C212.326 270.522 212.335 271.154 212.491 271.814L210.05 273.114C209.688 272.102 209.58 271.076 209.725 270.034C209.867 269.003 210.265 268.03 210.92 267.115C211.571 266.211 212.484 265.447 213.656 264.823ZM195.52 280.632L198.962 290.7L196.345 291.595L190.522 274.563L193.139 273.668L194.124 276.551L194.302 276.491C194.405 275.489 194.775 274.541 195.41 273.647C196.048 272.76 197.01 272.097 198.296 271.657C199.361 271.293 200.387 271.202 201.374 271.385C202.364 271.575 203.257 272.062 204.054 272.847C204.853 273.638 205.5 274.759 205.995 276.208L209.696 287.03L207.079 287.925L203.439 277.28C203.015 276.038 202.328 275.166 201.381 274.665C200.426 274.165 199.405 274.102 198.318 274.473C197.668 274.696 197.063 275.088 196.504 275.651C195.938 276.216 195.543 276.921 195.32 277.765C195.089 278.612 195.156 279.567 195.52 280.632ZM181.535 295.064L181.073 292.766L190.218 290.928L190.68 293.226L181.535 295.064ZM188.864 297.99L186.153 298.535L182.773 281.715C182.619 280.949 182.393 280.396 182.093 280.058C181.788 279.729 181.446 279.535 181.068 279.475C180.683 279.425 180.292 279.44 179.894 279.52C179.595 279.58 179.353 279.645 179.168 279.714C178.984 279.791 178.837 279.852 178.726 279.898L177.685 277.573C177.855 277.467 178.098 277.347 178.414 277.212C178.728 277.069 179.137 276.947 179.643 276.845C180.409 276.691 181.193 276.705 181.994 276.887C182.788 277.07 183.494 277.45 184.112 278.027C184.722 278.606 185.13 279.408 185.337 280.434L188.864 297.99ZM166.506 277.998C168.236 277.882 169.754 278.164 171.06 278.844C172.359 279.532 173.394 280.543 174.165 281.877C174.928 283.22 175.371 284.811 175.494 286.651C175.617 288.49 175.391 290.134 174.814 291.582C174.231 293.039 173.361 294.201 172.206 295.069C171.043 295.946 169.651 296.438 168.029 296.547C167.094 296.609 166.16 296.515 165.227 296.264C164.294 296.014 163.43 295.563 162.635 294.911C161.84 294.268 161.182 293.388 160.661 292.272C160.14 291.155 159.823 289.759 159.711 288.083L159.633 286.914L173.477 285.987L173.636 288.372L162.599 289.112C162.667 290.125 162.93 291.016 163.388 291.784C163.839 292.552 164.45 293.141 165.221 293.552C165.985 293.963 166.866 294.135 167.863 294.068C168.963 293.994 169.895 293.658 170.662 293.058C171.421 292.467 171.986 291.725 172.356 290.831C172.727 289.937 172.879 288.995 172.813 288.005L172.707 286.415C172.616 285.058 172.305 283.924 171.774 283.012C171.236 282.109 170.53 281.44 169.655 281.005C168.781 280.578 167.786 280.402 166.671 280.476C165.947 280.525 165.299 280.67 164.727 280.912C164.149 281.162 163.659 281.508 163.258 281.95C162.858 282.4 162.562 282.944 162.369 283.583L159.653 283.013C159.873 282.09 160.292 281.264 160.909 280.533C161.526 279.811 162.309 279.226 163.257 278.779C164.207 278.339 165.289 278.079 166.506 277.998ZM119.695 276.59C120.591 276.892 121.335 277.387 121.927 278.074C122.518 278.768 122.91 279.56 123.104 280.45C123.29 281.338 123.232 282.229 122.93 283.125C122.625 284.028 122.13 284.772 121.446 285.357C120.752 285.947 119.961 286.336 119.073 286.522C118.183 286.716 117.29 286.662 116.394 286.36C115.491 286.055 114.749 285.556 114.166 284.865C113.573 284.178 113.184 283.391 112.997 282.503C112.8 281.62 112.855 280.727 113.16 279.824C113.462 278.929 113.961 278.186 114.655 277.596C115.342 277.003 116.13 276.61 117.02 276.416C117.901 276.227 118.792 276.285 119.695 276.59ZM86.0779 253.664L70.2027 271.663L59.3397 262.082L61.0451 260.149L69.7284 267.807L75.0925 261.725L66.9717 254.563L68.677 252.629L76.7978 259.792L82.1929 253.675L73.369 245.892L75.0743 243.959L86.0779 253.664ZM56.7222 250.565L59.6082 242.538L51.195 243.944L49.1523 241.497L59.7862 240.191L62.9704 229.962L65.0131 232.408L62.415 240.195L70.5404 239.03L72.583 241.477L62.0092 242.854L58.7649 253.012L56.7222 250.565ZM57.749 220.855C58.6269 222.297 59.0425 223.745 58.996 225.2C58.9494 226.656 58.4997 228.027 57.6468 229.315C56.7938 230.603 55.6001 231.715 54.0655 232.649C52.5042 233.6 50.9516 234.153 49.4078 234.306C47.8532 234.458 46.424 234.221 45.1202 233.598C43.8056 232.971 42.7257 231.964 41.8803 230.576C41.2219 229.495 40.8287 228.399 40.7007 227.288C40.5727 226.177 40.7003 225.125 41.0836 224.132C41.4668 223.14 42.0982 222.284 42.9777 221.565L44.4165 223.927C43.8256 224.534 43.4489 225.312 43.2865 226.262C43.1133 227.209 43.3437 228.203 43.9777 229.244C44.5385 230.165 45.2705 230.826 46.1736 231.227C47.0659 231.626 48.0636 231.754 49.1667 231.613C50.2591 231.469 51.3857 231.043 52.5467 230.336C53.7343 229.613 54.6547 228.796 55.3079 227.886C55.9569 226.969 56.3157 226.019 56.3841 225.035C56.4485 224.044 56.1962 223.082 55.6272 222.148C55.2533 221.534 54.8072 221.042 54.2889 220.672C53.7706 220.301 53.2056 220.064 52.5939 219.961C51.9823 219.858 51.3515 219.904 50.7016 220.099L49.2629 217.737C50.2516 217.317 51.2701 217.15 52.3184 217.234C53.356 217.315 54.3505 217.656 55.3018 218.257C56.2423 218.855 57.0581 219.721 57.749 220.855ZM49.4835 204.27C50.1434 205.874 50.3586 207.403 50.1291 208.858C49.8895 210.308 49.2595 211.61 48.2393 212.765C47.2089 213.915 45.8412 214.841 44.1361 215.543C42.431 216.244 40.8004 216.552 39.2443 216.466C37.678 216.375 36.2996 215.92 35.1092 215.1C33.9085 214.277 32.999 213.113 32.3808 211.61C32.0241 210.743 31.8163 209.828 31.7575 208.864C31.6987 207.899 31.8518 206.937 32.2167 205.976C32.5743 205.018 33.1995 204.114 34.0921 203.265C34.9847 202.416 36.2077 201.673 37.7611 201.033L38.8448 200.588L44.124 213.419L41.9132 214.329L37.7041 204.098C36.7648 204.485 36.004 205.017 35.4217 205.696C34.8363 206.368 34.4717 207.134 34.3278 207.996C34.181 208.851 34.2978 209.74 34.6783 210.665C35.0974 211.684 35.7129 212.461 36.5248 212.997C37.3265 213.529 38.2101 213.829 39.1756 213.896C40.141 213.964 41.0825 213.809 42.0001 213.431L43.474 212.825C44.7311 212.308 45.7076 211.652 46.4035 210.859C47.0892 210.062 47.4991 209.179 47.6332 208.212C47.7601 207.247 47.611 206.248 47.186 205.215C46.9095 204.543 46.5659 203.975 46.1551 203.51C45.7341 203.042 45.2504 202.687 44.704 202.447C44.1504 202.21 43.54 202.103 42.8728 202.124L42.5498 199.367C43.4949 199.283 44.4117 199.417 45.3001 199.769C46.1814 200.125 46.9848 200.681 47.7104 201.439C48.4287 202.199 49.0198 203.143 49.4835 204.27ZM21.1371 197.437L44.2284 190.895L44.9822 193.556L21.8909 200.098L21.1371 197.437ZM36.2215 151.356C36.1603 152.3 35.8744 153.146 35.3639 153.896C34.8456 154.645 34.1814 155.229 33.3715 155.646C32.562 156.055 31.6856 156.229 30.7423 156.168C29.7912 156.106 28.9446 155.82 28.2026 155.31C27.4534 154.792 26.874 154.128 26.4646 153.319C26.0474 152.509 25.8694 151.632 25.9306 150.689C25.9923 149.738 26.2821 148.891 26.8 148.15C27.3105 147.4 27.9705 146.821 28.7799 146.411C29.5821 145.993 30.4587 145.815 31.4099 145.877C32.3532 145.938 33.1995 146.228 33.9488 146.746C34.6985 147.257 35.282 147.917 35.6992 148.727C36.1091 149.529 36.2832 150.405 36.2215 151.356ZM49.6261 112.942L28.0872 102.356L34.4763 89.3568L36.79 90.494L31.6829 100.885L38.9607 104.462L43.737 94.7442L46.0508 95.8814L41.2744 105.599L48.5943 109.197L53.7842 98.6378L56.0979 99.775L49.6261 112.942ZM44.9857 83.7312L53.4846 84.4573L49.9639 76.6879L51.8037 74.085L55.7983 84.0262L66.5027 84.4743L64.663 87.0772L56.4703 86.5676L59.6848 94.1205L57.845 96.7235L53.7962 86.8588L43.1459 86.3342L44.9857 83.7312ZM73.9045 86.2448L56.2181 68.9314L58.0871 67.022L60.1305 69.0223L60.36 68.7878C60.2788 68.424 60.1908 67.9443 60.0961 67.3487C60.0012 66.742 60.0547 66.0619 60.2566 65.3084C60.4584 64.5439 60.9692 63.7429 61.7889 62.9054C62.8492 61.8224 64.0545 61.1328 65.4048 60.8366C66.7552 60.5405 68.1541 60.6471 69.6014 61.1565C71.0487 61.6659 72.4479 62.5819 73.799 63.9045C75.1612 65.2379 76.1152 66.6255 76.6609 68.0671C77.201 69.5033 77.343 70.8995 77.0867 72.2557C76.8249 73.6065 76.1693 74.8179 75.12 75.8898C74.3112 76.716 73.5268 77.2437 72.7669 77.4728C72.0013 77.6964 71.3115 77.7701 70.6975 77.6937C70.0779 77.6119 69.5798 77.5289 69.2032 77.4445L69.0393 77.612L75.8391 84.2684L73.9045 86.2448ZM64.5514 73.2843C65.5228 74.2352 66.5191 74.9318 67.5403 75.3739C68.556 75.8106 69.541 75.9603 70.4953 75.8231C71.444 75.6804 72.3063 75.2126 73.0824 74.4199C73.8912 73.5936 74.3484 72.691 74.454 71.712C74.5595 70.722 74.3776 69.724 73.9083 68.718C73.4389 67.7009 72.7464 66.7443 71.8309 65.848C70.9264 64.9626 69.9747 64.3043 68.9757 63.873C67.9766 63.4306 66.9916 63.2809 66.0208 63.4239C65.0499 63.5557 64.1545 64.0404 63.3347 64.8778C62.5478 65.6818 62.0903 66.5568 61.9622 67.5028C61.8286 68.4434 61.9881 69.4085 62.4406 70.3981C62.8875 71.3823 63.5911 72.3443 64.5514 73.2843ZM70.2976 47.0321L85.465 65.6318L83.3217 67.3796L68.1542 48.7799L70.2976 47.0321ZM95.9461 59.0842C94.573 59.9532 93.1614 60.3889 91.7113 60.3912C90.2679 60.3894 88.8839 59.9848 87.5593 59.1774C86.2413 58.3657 85.0851 57.1743 84.0908 55.6032C83.0881 54.0188 82.5001 52.454 82.3266 50.9089C82.1597 49.3595 82.3844 47.9322 83.0006 46.6269C83.6235 45.3174 84.6215 44.2282 85.9946 43.3592C87.3677 42.4902 88.776 42.0567 90.2195 42.0585C91.6695 42.0561 93.0556 42.4641 94.3778 43.2823C95.7066 44.0963 96.8723 45.2955 97.875 46.8799C98.8693 48.4511 99.4478 50.008 99.6105 51.5508C99.7798 53.0893 99.553 54.5133 98.9302 55.8228C98.3139 57.1281 97.3192 58.2153 95.9461 59.0842ZM94.6176 56.9849C95.6606 56.3248 96.3496 55.5144 96.6846 54.5535C97.0196 53.5926 97.073 52.5741 96.845 51.498C96.6171 50.4219 96.1814 49.3755 95.538 48.3589C94.8946 47.3422 94.1334 46.4972 93.2542 45.8239C92.3751 45.1506 91.4276 44.7564 90.4116 44.6412C89.3957 44.526 88.3662 44.7984 87.3231 45.4585C86.2801 46.1186 85.5932 46.9324 85.2624 47.8999C84.9316 48.8673 84.8823 49.8924 85.1145 50.9752C85.3466 52.0579 85.7844 53.1076 86.4278 54.1242C87.0712 55.1409 87.8303 55.9825 88.7053 56.6492C89.5802 57.3159 90.5236 57.7036 91.5353 57.8122C92.5471 57.9208 93.5745 57.645 94.6176 56.9849ZM106.343 52.4528L98.7926 36.1132L101.218 34.9924L102.358 37.4603L102.529 37.3817C102.453 36.4355 102.689 35.5305 103.236 34.6665C103.784 33.8024 104.547 33.1443 105.525 32.692C105.71 32.6068 105.942 32.5038 106.222 32.3831C106.502 32.2624 106.716 32.1764 106.864 32.125L108.044 34.6781C107.949 34.6961 107.739 34.7543 107.415 34.8527C107.094 34.9407 106.767 35.0617 106.433 35.2158C105.639 35.5828 105.007 36.0772 104.537 36.6989C104.071 37.3103 103.791 37.9903 103.698 38.739C103.609 39.4773 103.735 40.2152 104.076 40.9527L108.854 51.2927L106.343 52.4528ZM124.422 45.9582C122.766 46.4739 121.223 46.5532 119.795 46.1962C118.371 45.8294 117.13 45.087 116.07 43.9688C115.015 42.8408 114.213 41.3967 113.665 39.6363C113.117 37.8759 112.954 36.2246 113.177 34.6821C113.406 33.1299 113.981 31.7971 114.903 30.6837C115.829 29.5605 117.068 28.7573 118.62 28.2741C119.515 27.9953 120.445 27.8693 121.411 27.8958C122.377 27.9224 123.322 28.1599 124.247 28.6082C125.17 29.049 126.015 29.7515 126.781 30.7156C127.548 31.6797 128.181 32.9636 128.68 34.5673L129.029 35.6862L115.781 39.8118L115.071 37.5293L125.633 34.24C125.331 33.2703 124.867 32.4654 124.243 31.8254C123.625 31.183 122.894 30.7521 122.048 30.5327C121.21 30.311 120.313 30.3488 119.358 30.6461C118.307 30.9736 117.478 31.5181 116.872 32.2795C116.272 33.0311 115.895 33.8848 115.743 34.8405C115.591 35.7963 115.662 36.7478 115.957 37.6951L116.431 39.2168C116.835 40.5147 117.401 41.5452 118.13 42.3084C118.864 43.0618 119.707 43.548 120.658 43.7671C121.608 43.9787 122.616 43.9184 123.683 43.5862C124.377 43.3701 124.973 43.078 125.472 42.7099C125.976 42.3319 126.372 41.8814 126.659 41.3583C126.944 40.8278 127.105 40.2293 127.143 39.5629L129.917 39.4845C129.918 40.4334 129.704 41.3347 129.274 42.1886C128.842 43.035 128.217 43.7861 127.398 44.442C126.577 45.0904 125.585 45.5958 124.422 45.9582Z" fill="white"/>
<circle cx="159.5" cy="159.5" r="42.5" fill="white"/>
<path d="M175.416 147.312C174.056 145.112 172.224 143.249 170.056 141.86C167.888 140.471 165.438 139.592 162.889 139.287C160.324 138.828 157.692 138.92 155.165 139.559C152.638 140.197 150.272 141.366 148.223 142.991C146.133 144.461 144.354 146.337 142.99 148.51C141.626 150.683 140.704 153.109 140.279 155.646C139.845 158.218 139.918 160.851 140.495 163.393C141.071 165.936 142.141 168.339 143.64 170.462C145.83 173.704 148.933 176.205 152.548 177.642C156.162 179.078 160.121 179.384 163.909 178.518C167.698 177.653 171.141 175.657 173.792 172.789C176.444 169.921 178.18 166.314 178.776 162.437C179.538 157.149 178.341 151.764 175.416 147.312Z" fill="#00C5DE"/>
</svg>
