<svg xmlns="http://www.w3.org/2000/svg" width="111" height="100" viewBox="0 0 111 100">
    <defs>
        <style>
            .cls-1{fill:#060828}.cls-2{fill:#00c5de}
        </style>
    </defs>
    <g id="certificate" transform="translate(0 -24)">
        <g id="Group_5279" data-name="Group 5279" transform="translate(0 24)">
            <g id="Group_5278" data-name="Group 5278">
                <path id="Path_9491" d="M103.6 24H18.5a7.4 7.4 0 0 0-7.4 7.407v59.26H1.85A1.851 1.851 0 0 0 0 92.519a7.4 7.4 0 0 0 7.4 7.407h53.65v22.222a1.85 1.85 0 0 0 3.158 1.309l9.792-9.8 9.792 9.8A1.849 1.849 0 0 0 85.1 124a1.825 1.825 0 0 0 .709-.141 1.852 1.852 0 0 0 1.141-1.711V99.926h5.55a7.4 7.4 0 0 0 7.4-7.407v-59.26h9.25a1.851 1.851 0 0 0 1.85-1.852A7.4 7.4 0 0 0 103.6 24zm-7.4 7.407v59.26h-7.4v3.7h6.9a3.7 3.7 0 0 1-3.2 1.852h-5.55V94.37h-3.7v23.307l-7.942-7.95a1.849 1.849 0 0 0-2.616 0l-7.942 7.95V94.37h-3.7v1.852H7.4a3.7 3.7 0 0 1-3.2-1.852h55v-3.7H14.8V31.407a3.7 3.7 0 0 1 3.7-3.7h78.729a7.338 7.338 0 0 0-1.029 3.7zm4.2-1.852a3.7 3.7 0 0 1 6.4 0z" class="cls-1" data-name="Path 9491" transform="translate(0 -24)"/>
            </g>
        </g>
        <path id="Path_9492" d="M278.851 198.966l-2.384-4.271 2.393-4.268a1.861 1.861 0 0 0-.708-2.535 2.013 2.013 0 0 0-.139-.071l-4.442-2.034-.571-4.857a1.861 1.861 0 0 0-2.068-1.628 2.178 2.178 0 0 0-.141.022l-4.8.951-3.318-3.594a1.917 1.917 0 0 0-2.711-.021l-.021.021-3.318 3.594-4.8-.951a1.861 1.861 0 0 0-2.187 1.465q-.014.07-.022.141l-.573 4.857-4.442 2.038a1.861 1.861 0 0 0-.918 2.467q.032.071.071.139l2.393 4.264-2.393 4.268a1.861 1.861 0 0 0 .708 2.535c.045.025.091.049.139.071l4.442 2.038.573 4.861a1.861 1.861 0 0 0 2.068 1.628q.071-.008.141-.022l4.8-.951 3.318 3.594a1.861 1.861 0 0 0 2.63.1q.053-.049.1-.1l3.318-3.594 4.8.951a1.835 1.835 0 0 0 1.455-.32 1.861 1.861 0 0 0 .744-1.286l.573-4.857 4.439-2.04a1.861 1.861 0 0 0 .918-2.467 1.095 1.095 0 0 0-.067-.138zm-6.14-3.363l1.915 3.417-3.558 1.632a1.861 1.861 0 0 0-1.068 1.474l-.458 3.9-3.847-.761a1.835 1.835 0 0 0-1.727.558l-2.658 2.881-2.658-2.877a1.861 1.861 0 0 0-1.366-.6 1.681 1.681 0 0 0-.361.037l-3.847.761-.458-3.9a1.861 1.861 0 0 0-1.072-1.474l-3.558-1.632 1.91-3.419a1.826 1.826 0 0 0 0-1.82v.007l-1.915-3.417 3.558-1.632a1.861 1.861 0 0 0 1.072-1.474l.458-3.9 3.847.761a1.843 1.843 0 0 0 1.727-.558l2.658-2.887 2.658 2.877a1.833 1.833 0 0 0 1.727.558l3.847-.761.458 3.9a1.861 1.861 0 0 0 1.072 1.474l3.558 1.632-1.915 3.417a1.861 1.861 0 0 0 .001 1.823z" class="cls-2" data-name="Path 9492" transform="translate(-187.358 -117.002)"/>
        <path id="Path_9493" d="M289.306 216a9.306 9.306 0 1 0 9.306 9.306 9.306 9.306 0 0 0-9.306-9.306zm0 14.889a5.583 5.583 0 1 1 5.583-5.583 5.583 5.583 0 0 1-5.583 5.583z" class="cls-1" data-name="Path 9493" transform="translate(-215.328 -147.606)"/>
        <path id="Rectangle_2919" d="M0 0h29.778v3.722H0z" class="cls-2" data-name="Rectangle 2919" transform="translate(40.611 35.167)"/>
        <path id="Rectangle_2920" d="M0 0h67v3.722H0z" class="cls-1" data-name="Rectangle 2920" transform="translate(22 46.218)"/>
        <path id="Rectangle_2921" d="M0 0h67v3.722H0z" class="cls-1" data-name="Rectangle 2921" transform="translate(22 53.624)"/>
        <path id="Rectangle_2922" d="M0 0h24.194v3.722H0z" class="cls-2" data-name="Rectangle 2922" transform="translate(24.01 77.693)"/>
    </g>
</svg>
