<svg xmlns="http://www.w3.org/2000/svg" width="100" height="99.998" viewBox="0 0 100 99.998">
    <defs>
        <style>
            .cls-1{fill:#00c5de}.cls-2{fill:#060828}
        </style>
    </defs>
    <g id="email" transform="translate(0 .001)">
        <path id="Path_9494" d="M193.724 18.331l-9.484 15.808a1.667 1.667 0 0 0 1.428 2.525 1.633 1.633 0 0 0 .457-.065l58.333-16.667a1.666 1.666 0 0 0 0-3.2L186.124.063a1.667 1.667 0 0 0-1.885 2.46zm-4.456 13.905L196.611 20H232.1zM232.1 16.664h-35.49l-7.342-12.238zm0 0" class="cls-1" data-name="Path 9494" transform="translate(-145.668)"/>
        <path id="Path_9495" d="M95 104.992H5a1.667 1.667 0 0 1-1.667-1.667V84.992A1.667 1.667 0 0 1 5 83.325h10v-3.333H5a5 5 0 0 0-5 5v18.333a5 5 0 0 0 5 5h90a1.667 1.667 0 0 1 1.667 1.667v20A1.667 1.667 0 0 1 95 131.659h-5v3.333h5a5 5 0 0 0 5-5v-20a5 5 0 0 0-5-5zm0 0" class="cls-2" data-name="Path 9495" transform="translate(0 -63.328)"/>
        <path id="Path_9496" d="M304 327.992h3.333v3.333H304zm0 0" class="cls-2" data-name="Path 9496" transform="translate(-240.667 -259.661)"/>
        <path id="Path_9497" d="M336 327.992h3.333v3.333H336zm0 0" class="cls-2" data-name="Path 9497" transform="translate(-266 -259.661)"/>
        <path id="Path_9498" d="M368 327.992h3.333v3.333H368zm0 0" class="cls-2" data-name="Path 9498" transform="translate(-291.333 -259.661)"/>
        <path id="Path_9499" d="M400 327.992h3.333v3.333H400zm0 0" class="cls-2" data-name="Path 9499" transform="translate(-316.667 -259.661)"/>
        <path id="Path_9500" d="M88 79.992h3.333v3.333H88zm0 0" class="cls-2" data-name="Path 9500" transform="translate(-69.667 -63.328)"/>
        <path id="Path_9501" d="M120 79.992h3.333v3.333H120zm0 0" class="cls-2" data-name="Path 9501" transform="translate(-95 -63.328)"/>
        <path id="Path_9502" d="M152 79.992h3.333v3.333H152zm0 0" class="cls-2" data-name="Path 9502" transform="translate(-120.333 -63.328)"/>
        <path id="Path_9503" d="M184 79.992h3.333v3.333H184zm0 0" class="cls-2" data-name="Path 9503" transform="translate(-145.667 -63.328)"/>
        <path id="Path_9504" d="M53.333 247.992h-50A3.333 3.333 0 0 0 0 251.325v30a3.334 3.334 0 0 0 3.333 3.333h18.334v3.333H20a1.667 1.667 0 0 0-1.667 1.667v3.333H15v3.333h26.667v-3.333h-3.334v-3.333a1.667 1.667 0 0 0-1.667-1.667H35v-3.333h18.333a3.334 3.334 0 0 0 3.333-3.333v-30a3.333 3.333 0 0 0-3.333-3.333zm-50 3.333h50v23.333h-50zm18.333 41.667v-1.667H35v1.667zm3.333-5v-3.333h6.667v3.333zm-21.666-6.667v-3.333h50v3.333zm0 0" class="cls-2" data-name="Path 9504" transform="translate(0 -196.328)"/>
        <path id="Path_9505" d="M32 279.992h6.667v3.333H32zm0 0" class="cls-1" data-name="Path 9505" transform="translate(-25.333 -221.661)"/>
        <path id="Path_9506" d="M80 279.992h3.333v3.333H80zm0 0" class="cls-1" data-name="Path 9506" transform="translate(-63.333 -221.661)"/>
        <path id="Path_9507" d="M112 279.992h8.333v3.333H112zm0 0" class="cls-1" data-name="Path 9507" transform="translate(-88.667 -221.661)"/>
        <path id="Path_9508" d="M32 311.992h6.667v3.333H32zm0 0" class="cls-1" data-name="Path 9508" transform="translate(-25.333 -246.994)"/>
        <path id="Path_9509" d="M80 311.992h10v3.333H80zm0 0" class="cls-1" data-name="Path 9509" transform="translate(-63.333 -246.994)"/>
    </g>
</svg>
