<svg xmlns="http://www.w3.org/2000/svg" width="99" height="100" viewBox="0 0 99 100">
    <defs>
        <style>
            .cls-1{fill:#060828}.cls-2{fill:#00BED4}
        </style>
    </defs>
    <g id="office">
        <path id="Path_9510" d="M97.066 21.989a1.933 1.933 0 0 0-1.933 1.934v6.133H83.451a1.934 1.934 0 0 0-1.934 1.934v5.846h-9.749V18.249a1.954 1.954 0 0 0-1.275-1.818L25.461.116a1.933 1.933 0 0 0-2.592 1.818V42.38a55.164 55.164 0 0 0-6.719 6.551A61.957 61.957 0 0 0 5.022 67.913 85.95 85.95 0 0 0 0 98.066 1.934 1.934 0 0 0 1.934 100h95.132A1.934 1.934 0 0 0 99 98.066V23.923a1.933 1.933 0 0 0-1.934-1.934zM85.385 33.924h9.748v3.912h-9.748zM26.736 14.608l4.619 2v20.208a39.855 39.855 0 0 0-4.619 2.69zM8.59 69.415a58.218 58.218 0 0 1 10.338-17.783A48.247 48.247 0 0 1 31.356 41.2v15.779H20.012a1.934 1.934 0 0 0 0 3.868h11.344v3.831H16.069a1.934 1.934 0 0 0 0 3.868h15.286v3.83H13.5a1.934 1.934 0 0 0 0 3.868h17.855v3.831H11.644a1.934 1.934 0 0 0 0 3.868h19.711v3.83h-20.3a1.934 1.934 0 0 0 0 3.868h20.3v4.491H3.885a81.008 81.008 0 0 1 4.7-26.717zm26.633 26.717v-80.8a1.935 1.935 0 0 0-1.167-1.776l-7.32-3.162v-5.7L65.2 18.625l-5.412 3.023a1.935 1.935 0 0 0-.991 1.688V80.25a1.934 1.934 0 0 0 3.867 0V24.471l5.236-2.927v74.588zm59.91 0H71.769V41.7h23.364v54.432zm0 0" class="cls-1" data-name="Path 9510"/>
        <path id="Path_9511" d="M388.8 236.927V245a1.933 1.933 0 0 0 1.933 1.934H401.9a1.934 1.934 0 0 0 1.937-1.934v-8.075a1.934 1.934 0 0 0-1.934-1.934h-11.165a1.933 1.933 0 0 0-1.938 1.936zm3.867 1.934h7.3v4.208h-7.3zm0 0" class="cls-2" data-name="Path 9511" transform="translate(-312.886 -189.095)"/>
        <path id="Path_9512" d="M401.9 314.281h-11.162a1.933 1.933 0 0 0-1.933 1.934v8.076a1.933 1.933 0 0 0 1.933 1.934H401.9a1.934 1.934 0 0 0 1.934-1.934v-8.076a1.934 1.934 0 0 0-1.934-1.934zm-1.934 8.076h-7.3v-4.208h7.3zm0 0" class="cls-2" data-name="Path 9512" transform="translate(-312.886 -252.898)"/>
        <path id="Path_9513" d="M401.9 393.574h-11.162a1.933 1.933 0 0 0-1.933 1.934v8.076a1.933 1.933 0 0 0 1.933 1.934H401.9a1.934 1.934 0 0 0 1.934-1.934v-8.076a1.934 1.934 0 0 0-1.934-1.934zm-1.934 8.076h-7.3v-4.208h7.3zm0 0" class="cls-2" data-name="Path 9513" transform="translate(-312.886 -316.704)"/>
        <path id="Path_9514" d="M216.877 104.25H207.2a1.934 1.934 0 0 0-1.934 1.934v9.677a1.934 1.934 0 0 0 1.934 1.939h9.677a1.934 1.934 0 0 0 1.934-1.934v-9.677a1.934 1.934 0 0 0-1.934-1.939zm-1.934 9.677h-5.809v-5.809h5.809zm0 0" class="cls-2" data-name="Path 9514" transform="translate(-165.184 -83.889)"/>
        <path id="Path_9515" d="M216.877 199.59H207.2a1.934 1.934 0 0 0-1.934 1.934v9.676a1.934 1.934 0 0 0 1.934 1.934h9.677a1.934 1.934 0 0 0 1.934-1.934v-9.677a1.934 1.934 0 0 0-1.934-1.933zm-1.934 9.677h-5.809v-5.81h5.809zm0 0" class="cls-2" data-name="Path 9515" transform="translate(-165.184 -160.607)"/>
        <path id="Path_9516" d="M216.877 294.926H207.2a1.934 1.934 0 0 0-1.934 1.934v9.677a1.934 1.934 0 0 0 1.934 1.934h9.677a1.934 1.934 0 0 0 1.934-1.934v-9.677a1.934 1.934 0 0 0-1.934-1.934zm-1.934 9.677h-5.809v-5.809h5.809zm0 0" class="cls-2" data-name="Path 9516" transform="translate(-165.184 -237.323)"/>
        <path id="Path_9517" d="M216.877 390.266H207.2a1.934 1.934 0 0 0-1.934 1.934v9.677a1.934 1.934 0 0 0 1.934 1.934h9.677a1.934 1.934 0 0 0 1.934-1.934V392.2a1.934 1.934 0 0 0-1.934-1.934zm-1.934 9.677h-5.809v-5.81h5.809zm0 0" class="cls-2" data-name="Path 9517" transform="translate(-165.184 -314.042)"/>
        <path id="Path_9518" d="M304.807 448.048a1.933 1.933 0 1 0-.712 2.348 1.952 1.952 0 0 0 .712-2.348zm0 0" class="cls-2" data-name="Path 9518" transform="translate(-242.295 -359.579)"/>
    </g>
</svg>
