<svg xmlns="http://www.w3.org/2000/svg" width="101" height="100" viewBox="0 0 101 100">
    <defs>
        <style>
            .cls-1{fill:#060828}.cls-2{fill:#00BED4}
        </style>
    </defs>
    <g id="receipt" transform="translate(0 -.293)">
        <path id="Path_9519" d="M101 7.025A6.74 6.74 0 0 0 94.267.293H6.733A6.718 6.718 0 0 0 5.05 13.519v81.725l5.05-5.049 10.1 10.1 10.1-10.1 10.1 10.1 10.1-10.1 10.1 10.1 10.1-10.1 10.1 10.1 10.1-10.1 5.05 5.049V13.519A6.725 6.725 0 0 0 101 7.025zm-8.417 80.093L90.9 85.435l-10.1 10.1-10.1-10.1-10.1 10.1-10.1-10.1-10.1 10.1-10.1-10.1-10.1 10.1-10.1-10.1-1.683 1.683V8.709h84.166v78.409zM95.95 9.939v-4.6H5.05v4.6a3.365 3.365 0 0 1 1.683-6.28h87.534a3.365 3.365 0 0 1 1.683 6.28z" class="cls-1" data-name="Path 9519"/>
        <path id="Path_9520" d="M54.933 40.293h-25.25a1.683 1.683 0 0 0 0 3.367h25.25a1.683 1.683 0 0 0 0-3.367z" class="cls-1" data-name="Path 9520" transform="translate(19.133 27.324)"/>
        <path id="Path_9521" d="M48.488 40.773a1.732 1.732 0 0 0-.488 1.2 1.683 1.683 0 1 0 3.367 0 1.732 1.732 0 0 0-.488-1.2 1.763 1.763 0 0 0-2.391 0z" class="cls-2" data-name="Path 9521" transform="translate(32.8 27.332)"/>
        <path id="Path_9522" d="M59.933 26.293h-25.25a1.683 1.683 0 0 0 0 3.367h25.25a1.683 1.683 0 1 0 0-3.367z" class="cls-1" data-name="Path 9522" transform="translate(22.55 17.761)"/>
        <path id="Path_9523" d="M56.517 33.293H39.683a1.683 1.683 0 0 0 0 3.367h16.834a1.683 1.683 0 1 0 0-3.367z" class="cls-1" data-name="Path 9523" transform="translate(25.967 22.542)"/>
        <path id="Path_9524" d="M28 34.976a1.683 1.683 0 0 0 1.683 1.683h3.367a1.683 1.683 0 1 0 0-3.367h-3.367A1.683 1.683 0 0 0 28 34.976z" class="cls-2" data-name="Path 9524" transform="translate(19.133 22.542)"/>
        <path id="Path_9525" d="M56.617 20.976a1.683 1.683 0 0 0-1.683-1.683H29.683a1.683 1.683 0 0 0 0 3.367h25.25a1.683 1.683 0 0 0 1.684-1.684z" class="cls-1" data-name="Path 9525" transform="translate(19.133 12.979)"/>
        <path id="Path_9526" d="M48.488 19.773a1.732 1.732 0 0 0-.488 1.2 1.667 1.667 0 0 0 1.683 1.683 1.738 1.738 0 0 0 1.2-.488 1.69 1.69 0 1 0-2.39-2.39z" class="cls-2" data-name="Path 9526" transform="translate(32.8 12.987)"/>
        <path id="Path_9527" d="M31.878 29.163a1.707 1.707 0 0 0 0-2.39 1.762 1.762 0 0 0-2.39 0 1.707 1.707 0 0 0 0 2.39 1.707 1.707 0 0 0 2.39 0z" class="cls-2" data-name="Path 9527" transform="translate(19.817 17.769)"/>
        <path id="Path_9528" d="M36.878 36.163a1.738 1.738 0 0 0 .488-1.2 1.7 1.7 0 0 0-.488-1.2 1.683 1.683 0 1 0 0 2.39z" class="cls-2" data-name="Path 9528" transform="translate(23.233 22.551)"/>
        <path id="Path_9529" d="M21.1 22.83v-1.854a1.683 1.683 0 1 0-3.367 0v1.858a8.392 8.392 0 0 0-4.744 2.808 5.787 5.787 0 0 0-1.337 4.382 6.143 6.143 0 0 0 2.328 4.193l3.752 2.919v9.154a5.043 5.043 0 0 1-3.367-4.74 1.683 1.683 0 0 0-3.367 0 8.432 8.432 0 0 0 6.735 8.25v1.478a1.683 1.683 0 1 0 3.367 0V49.79a8.4 8.4 0 0 0 4.745-2.808A5.8 5.8 0 0 0 27.18 42.6a6.138 6.138 0 0 0-2.328-4.188l-3.752-2.92v-9.154a5.043 5.043 0 0 1 3.367 4.74 1.683 1.683 0 0 0 3.367 0A8.433 8.433 0 0 0 21.1 22.83zm1.685 18.237a2.764 2.764 0 0 1 1.047 1.882 2.452 2.452 0 0 1-.557 1.86 5.029 5.029 0 0 1-2.175 1.473v-6.528zm-6.737-9.506A2.765 2.765 0 0 1 15 29.676a2.459 2.459 0 0 1 .557-1.858 5.029 5.029 0 0 1 2.175-1.473v6.526z" class="cls-2" data-name="Path 9529" transform="translate(7.517 12.977)"/>
        <circle id="Ellipse_112" cx="1.683" cy="1.683" r="1.683" class="cls-1" data-name="Ellipse 112" transform="translate(65.65 17.124)"/>
        <circle id="Ellipse_113" cx="1.683" cy="1.683" r="1.683" class="cls-1" data-name="Ellipse 113" transform="translate(58.917 17.124)"/>
        <circle id="Ellipse_114" cx="1.683" cy="1.683" r="1.683" class="cls-1" data-name="Ellipse 114" transform="translate(72.383 17.124)"/>
        <circle id="Ellipse_115" cx="1.683" cy="1.683" r="1.683" class="cls-1" data-name="Ellipse 115" transform="translate(52.183 17.124)"/>
        <circle id="Ellipse_116" cx="1.683" cy="1.683" r="1.683" class="cls-1" data-name="Ellipse 116" transform="translate(79.117 17.124)"/>
        <circle id="Ellipse_117" cx="1.683" cy="1.683" r="1.683" class="cls-1" data-name="Ellipse 117" transform="translate(31.983 17.124)"/>
        <circle id="Ellipse_118" cx="1.683" cy="1.683" r="1.683" class="cls-1" data-name="Ellipse 118" transform="translate(38.717 17.124)"/>
        <circle id="Ellipse_119" cx="1.683" cy="1.683" r="1.683" class="cls-1" data-name="Ellipse 119" transform="translate(45.45 17.124)"/>
        <circle id="Ellipse_120" cx="1.683" cy="1.683" r="1.683" class="cls-1" data-name="Ellipse 120" transform="translate(85.85 17.124)"/>
        <circle id="Ellipse_121" cx="1.683" cy="1.683" r="1.683" class="cls-1" data-name="Ellipse 121" transform="translate(25.25 17.124)"/>
        <circle id="Ellipse_122" cx="1.683" cy="1.683" r="1.683" class="cls-1" data-name="Ellipse 122" transform="translate(18.517 17.124)"/>
        <circle id="Ellipse_123" cx="1.683" cy="1.683" r="1.683" class="cls-1" data-name="Ellipse 123" transform="translate(11.783 17.124)"/>
    </g>
</svg>
