<svg xmlns="http://www.w3.org/2000/svg" width="100" height="100" viewBox="0 0 100 100">
    <defs>
        <style>
            .cls-1{fill:#060828}.cls-2{fill:#00BED4}
        </style>
    </defs>
    <g id="responsive">
        <path id="Path_9559" d="M91.666 0H18.333A8.343 8.343 0 0 0 10 8.334v35H5a5.006 5.006 0 0 0-5 5V95a5.006 5.006 0 0 0 5 5h23.333a5.006 5.006 0 0 0 5-5V70H45v3.333a8.344 8.344 0 0 0-8.333 8.334v1.667A3.338 3.338 0 0 0 40 86.667h30a3.337 3.337 0 0 0 3.333-3.333v-1.667A8.344 8.344 0 0 0 65 73.333V70h26.666A8.343 8.343 0 0 0 100 61.667V8.334A8.343 8.343 0 0 0 91.666 0zM5 46.667h23.333A1.668 1.668 0 0 1 30 48.333V50H3.333v-1.667A1.668 1.668 0 0 1 5 46.667zm-1.667 30V53.333H30v33.334H3.333zm30-25v-3.334a5.006 5.006 0 0 0-5-5H20V10h70v43.333H33.333zm-5 45H5A1.669 1.669 0 0 1 3.333 95v-5H30v5a1.669 1.669 0 0 1-1.667 1.667zm41.667-15v1.667H40v-1.667a5.005 5.005 0 0 1 5-5h20a5 5 0 0 1 5 5zm-8.333-8.334H48.333V70h13.334zm35-11.666a5.005 5.005 0 0 1-5 5H33.333v-10H90a3.337 3.337 0 0 0 3.333-3.333V10A3.337 3.337 0 0 0 90 6.667H20A3.338 3.338 0 0 0 16.666 10v33.334h-3.333v-35a5.006 5.006 0 0 1 5-5h73.333a5.006 5.006 0 0 1 5 5zm0 0" class="cls-1" data-name="Path 9559"/>
        <path id="Path_9560" d="M269.535 307.2H266.2a1.667 1.667 0 0 0 0 3.333h3.333a1.667 1.667 0 1 0 0-3.333zm0 0" class="cls-2" data-name="Path 9560" transform="translate(-212.869 -247.199)"/>
        <path id="Path_9561" d="M80.134 471a1.667 1.667 0 1 1-1.667-1.667A1.667 1.667 0 0 1 80.134 471zm0 0" class="cls-2" data-name="Path 9561" transform="translate(-61.801 -377.666)"/>
        <path id="Path_9562" d="M35.8 293.466h1.666a1.667 1.667 0 1 0 0-3.333H35.8a1.667 1.667 0 1 0 0 3.333zm0 0" class="cls-2" data-name="Path 9562" transform="translate(-27.467 -233.466)"/>
        <path id="Path_9563" d="M86.8 290.133h-8.333a1.667 1.667 0 0 0 0 3.333H86.8a1.667 1.667 0 1 0 0-3.333zm0 0" class="cls-2" data-name="Path 9563" transform="translate(-61.801 -233.466)"/>
        <path id="Path_9564" d="M122.8 68.266h-1.667a1.667 1.667 0 1 0 0 3.333h1.667a1.667 1.667 0 0 0 0-3.333zm0 0" class="cls-2" data-name="Path 9564" transform="translate(-96.132 -54.932)"/>
        <path id="Path_9565" d="M172.133 69.933a1.667 1.667 0 0 0-1.666-1.667H163.8a1.667 1.667 0 1 0 0 3.333h6.667a1.666 1.666 0 0 0 1.666-1.666zm0 0" class="cls-2" data-name="Path 9565" transform="translate(-130.466 -54.933)"/>
        <path id="Path_9566" d="M219.094 84.069l-2.339-.968a14.3 14.3 0 0 0 0-1.587l2.326-.963a3.338 3.338 0 0 0 1.805-4.356l-1.275-3.079a3.34 3.34 0 0 0-4.356-1.8l-2.327.964a14.684 14.684 0 0 0-1.123-1.121l.968-2.338a3.327 3.327 0 0 0-1.8-4.348l-3.091-1.281a3.332 3.332 0 0 0-4.349 1.8l-.968 2.339a14.53 14.53 0 0 0-1.589 0L200.013 65a3.335 3.335 0 0 0-4.353-1.8l-3.082 1.276a3.337 3.337 0 0 0-1.8 4.355l.964 2.327a14.537 14.537 0 0 0-1.12 1.123l-2.339-.968a3.337 3.337 0 0 0-4.349 1.8l-1.281 3.087a3.324 3.324 0 0 0 1.8 4.351l2.338.968a14.488 14.488 0 0 0 0 1.587l-2.325.963a3.337 3.337 0 0 0-1.805 4.356l1.274 3.081a3.342 3.342 0 0 0 4.356 1.8l2.328-.964a14.684 14.684 0 0 0 1.123 1.121l-.972 2.337a3.327 3.327 0 0 0 1.8 4.347l3.091 1.281a3.331 3.331 0 0 0 4.35-1.8l.968-2.338a14.516 14.516 0 0 0 1.588 0l.964 2.326a3.335 3.335 0 0 0 4.354 1.8l3.081-1.276a3.339 3.339 0 0 0 1.8-4.355l-.964-2.328a14.667 14.667 0 0 0 1.119-1.123l2.339.969a3.332 3.332 0 0 0 4.349-1.8l1.278-3.089a3.324 3.324 0 0 0-1.8-4.351zm-2.553 6.163l-3.484-1.443a1.661 1.661 0 0 0-1.979.55 11.253 11.253 0 0 1-2.287 2.3 1.666 1.666 0 0 0-.535 1.968l1.435 3.465-3.079 1.276-1.436-3.465a1.668 1.668 0 0 0-1.768-1.012 11.29 11.29 0 0 1-3.242-.008 1.656 1.656 0 0 0-1.789 1.01l-1.437 3.481-3.089-1.274 1.444-3.484a1.667 1.667 0 0 0-.552-1.98 11.258 11.258 0 0 1-2.3-2.288 1.668 1.668 0 0 0-1.968-.533l-3.465 1.436-1.274-3.081 3.464-1.434a1.667 1.667 0 0 0 1.012-1.768 11.318 11.318 0 0 1 .008-3.242 1.664 1.664 0 0 0-1.009-1.789l-3.482-1.437L187 74.387l3.484 1.443a1.671 1.671 0 0 0 1.979-.55 11.273 11.273 0 0 1 2.287-2.3 1.667 1.667 0 0 0 .536-1.968l-1.436-3.465 3.079-1.276 1.436 3.465a1.659 1.659 0 0 0 1.769 1.012 11.284 11.284 0 0 1 3.242.008 1.641 1.641 0 0 0 1.789-1.01l1.437-3.481 3.089 1.274-1.443 3.484A1.665 1.665 0 0 0 208.8 73a11.3 11.3 0 0 1 2.3 2.288 1.673 1.673 0 0 0 1.968.535l3.467-1.431 1.273 3.075-3.464 1.434a1.667 1.667 0 0 0-1.012 1.768 11.317 11.317 0 0 1-.008 3.242 1.664 1.664 0 0 0 1.009 1.789l3.482 1.436zm0 0" class="cls-1" data-name="Path 9566" transform="translate(-146.773 -50.643)"/>
        <path id="Path_9567" d="M256.679 128.509a6.667 6.667 0 1 0 3.608 3.608 6.667 6.667 0 0 0-3.608-3.608zm-1.275 9.238a3.317 3.317 0 1 1 1.81-1.8 3.332 3.332 0 0 1-1.81 1.8zm0 0" class="cls-2" data-name="Path 9567" transform="translate(-199.13 -103.001)"/>
        <path id="Path_9568" d="M51.289 324.838L37.466 338.66v-5.976a1.667 1.667 0 1 0-3.333 0v10a1.589 1.589 0 0 0 .192.74 1.7 1.7 0 0 0 .234.348 1.449 1.449 0 0 0 .557.424c.014.007.025.019.04.025a1.67 1.67 0 0 0 .639.127h10a1.667 1.667 0 0 0 0-3.333h-5.972L53.644 327.2a1.666 1.666 0 0 0-2.356-2.357zm0 0" class="cls-1" data-name="Path 9568" transform="translate(-27.467 -261.017)"/>
    </g>
</svg>
