<svg xmlns="http://www.w3.org/2000/svg" width="87" height="100" viewBox="0 0 87 100">
    <defs>
        <style>
            .cls-1{fill:#00c5de}.cls-2{fill:#060828}
        </style>
    </defs>
    <g id="customer-service" transform="translate(-5 -1)">
        <circle id="Ellipse_124" cx="1.613" cy="1.613" r="1.613" class="cls-1" data-name="Ellipse 124" transform="translate(56.553 33.258)"/>
        <circle id="Ellipse_125" cx="1.613" cy="1.613" r="1.613" class="cls-1" data-name="Ellipse 125" transform="translate(37.221 33.258)"/>
        <path id="Path_9548" d="M59.938 72.531l-1.969-.859-2.344 3.828.313 7.969z" class="cls-1" data-name="Path 9548"/>
        <path id="Path_9547" d="M56 83.3l-5.177-6.216 7.146-5.392zM43.667 54.226a1.614 1.614 0 0 1 1.611-1.613h6.444c4.293.2 1.043 3.684 0 3.226h-6.444a1.614 1.614 0 0 1-1.611-1.613zm-5 17.648c.122-.05.232-.119.351-.176l7.165 5.379L41 83.294l-3.911-10.776z" class="cls-1" data-name="Path 9547"/>
        <path id="Path_9544" d="M76.087 75.658l-16.528-6.769a4.822 4.822 0 0 1-3-4.479v-1.158a29.856 29.856 0 0 0 11.466-15.478h6.253a4.842 4.842 0 0 0 4.833-4.839v-6.451a4.832 4.832 0 0 0-3.222-4.542v-3.523a27.389 27.389 0 1 0-54.778 0v3.523a4.832 4.832 0 0 0-3.222 4.542v11.29a8.069 8.069 0 0 0 8.056 8.065h7.031a29.812 29.812 0 0 0 7.469 7.413v1.158a4.819 4.819 0 0 1-3 4.477l-16.532 6.769A25.551 25.551 0 0 0 5 99.387V101h87v-1.613a25.547 25.547 0 0 0-15.913-23.729zM34 73.784l.1-.042L39.317 88.1h-3.706A1.614 1.614 0 0 1 34 86.484zm14.5 5.542l7.3 8.774H41.2zM63 73.784v12.7a1.614 1.614 0 0 1-1.611 1.616h-3.706L62.9 73.742zm-3.087-1.265L56 83.3l-5.177-6.216 7.165-5.384c.119.056.229.126.351.176zm15.976-29.584a1.615 1.615 0 0 1-1.611 1.613h-5.436a30.023 30.023 0 0 0 .6-5.885v-3.792h4.833a1.615 1.615 0 0 1 1.611 1.613zM48.5 4.226a24.208 24.208 0 0 1 24.167 24.193v3.226h-3.223v-8.687l-2.119.706A69.17 69.17 0 0 1 48.5 26.806a69.036 69.036 0 0 1-18.824-3.144l-2.12-.706v8.689h-3.223v-3.226A24.208 24.208 0 0 1 48.5 4.226zM21.111 36.484a1.615 1.615 0 0 1 1.611-1.613h4.833v3.792a30.023 30.023 0 0 0 .6 5.885h-5.433a1.615 1.615 0 0 1-1.611-1.613v-6.451zm4.833 16.129a4.842 4.842 0 0 1-4.833-4.839v-.3a4.774 4.774 0 0 0 1.611.3h6.253a29.732 29.732 0 0 0 2.033 4.839zm11.086 3.226h3.712a4.827 4.827 0 0 0 4.537 3.226h6.444a4.839 4.839 0 0 0 0-9.677h-6.444a4.827 4.827 0 0 0-4.537 3.226H34.71a26.67 26.67 0 0 1-3.933-13.95v-11.3A69.476 69.476 0 0 0 48.5 30.032a69.476 69.476 0 0 0 17.722-2.669v11.3A26.653 26.653 0 0 1 48.5 63.81a26.6 26.6 0 0 1-11.47-7.971zm6.636-1.613a1.614 1.614 0 0 1 1.611-1.613h6.444a1.613 1.613 0 0 1 0 3.226h-6.443a1.614 1.614 0 0 1-1.611-1.613zm4.324 12.819l.509.171.509-.169a30.093 30.093 0 0 0 4.381-1.858 8.01 8.01 0 0 0 1.911 4.5l-6.8 5.1-6.8-5.106a8.01 8.01 0 0 0 1.911-4.5 29.935 29.935 0 0 0 4.382 1.858zm-9.328 4.829c.122-.05.232-.119.351-.176l7.165 5.379L41 83.294l-3.911-10.776zm-30.383 25.9A22.3 22.3 0 0 1 21.111 79.1v18.674zm16.055 0v-20.03l6.444-2.644v11.384a4.842 4.842 0 0 0 4.833 4.839h25.778a4.842 4.842 0 0 0 4.833-4.839V75.1l6.444 2.639v20.035zm51.556 0V79.1a22.3 22.3 0 0 1 12.831 18.674z" class="cls-2" data-name="Path 9544"/>
        <path id="Path_9545" d="M45.589 13.911a20.8 20.8 0 0 0-2.034-3.5L40.936 12.3a17.541 17.541 0 0 1 1.719 2.956z" class="cls-1" data-name="Path 9545" transform="translate(21.957 5.771)"/>
        <path id="Path_9546" d="M45.869 10.242A20.945 20.945 0 0 0 32 5v3.226a17.716 17.716 0 0 1 11.734 4.435z" class="cls-1" data-name="Path 9546" transform="translate(16.491 2.452)"/>
    </g>
</svg>
