<svg xmlns="http://www.w3.org/2000/svg" width="109" height="100" viewBox="0 0 109 100">
    <defs>
        <style>
            .cls-1{fill:#060828}.cls-2{fill:#00c5de}
        </style>
    </defs>
    <g id="encrypted" transform="translate(-.001 .001)">
        <path id="Path_9569" d="M151.423 96.648l-15.2 7.552v9.752h3.193v-7.773l13.428-6.671zm0 0" class="cls-1" data-name="Path 9569" transform="translate(-107.221 -76.228)"/>
        <path id="Path_9574" d="M104.78 39.98a4.228 4.228 0 0 0-3.907 2.607h-2.284l-4.92-4.89v-1.77h4.147a4.194 4.194 0 1 0 0-3.173h-4.147v-1.77l4.92-4.89h2.284a4.194 4.194 0 1 0 0-3.173h-3.606l-3.6 3.575v-7.159L54.5 0 15.332 19.337v22.856l-3.6-3.575H8.128a4.194 4.194 0 1 0 0 3.173h2.284l4.92 4.889v.536q0 .619.014 1.235h-4.161a4.194 4.194 0 1 0 0 3.173h4.323q.059.733.136 1.462l-5.232 5.2H8.128a4.194 4.194 0 1 0 0 3.173h3.607l4.472-4.444a55.2 55.2 0 0 0 35.117 41.8L54.5 100l3.176-1.183a55.154 55.154 0 0 0 26.116-20.208 54.624 54.624 0 0 0 9.878-31.392v-5.031l3.6 3.575h3.607a4.215 4.215 0 1 0 3.907-5.781zm-3.057-6.661a1.021 1.021 0 1 1-1.023 1.021 1.025 1.025 0 0 1 1.023-1.02zm3.057-9.833a1.021 1.021 0 1 1-1.027 1.021 1.025 1.025 0 0 1 1.027-1.021zM4.221 41.225A1.021 1.021 0 1 1 5.248 40.2a1.025 1.025 0 0 1-1.027 1.025zm3.057 9.834a1.021 1.021 0 1 1 1.027-1.021 1.026 1.026 0 0 1-1.027 1.021zm-3.057 9.834a1.021 1.021 0 1 1 1.027-1.021 1.025 1.025 0 0 1-1.027 1.021zM52.9 86.843A43.366 43.366 0 0 1 26.872 47.3V26.64L52.9 13.787h3.2L82.129 26.64V47.3A43.366 43.366 0 0 1 56.1 86.843zM27.835 76.8a51.468 51.468 0 0 1-9.31-29.584V21.3L52.9 4.332v5.912L23.679 24.673V47.3A46.336 46.336 0 0 0 52.9 90.285v5.731l-.458-.171A51.973 51.973 0 0 1 27.835 76.8zm62.641-29.583A51.473 51.473 0 0 1 81.167 76.8a51.98 51.98 0 0 1-24.611 19.045l-.459.171v-5.731a46.339 46.339 0 0 0 20.92-16.59A45.919 45.919 0 0 0 85.322 47.3V24.673L56.1 10.244V4.331L90.476 21.3zm14.3-2.022a1.021 1.021 0 1 1 1.027-1.021 1.025 1.025 0 0 1-1.023 1.026zm0 0" class="cls-1" data-name="Path 9574"/>
        <path id="Path_9575" d="M101.723 33.32a1.021 1.021 0 1 1-1.023 1.02 1.025 1.025 0 0 1 1.023-1.02zm3.057-9.833a1.021 1.021 0 1 1-1.027 1.021 1.025 1.025 0 0 1 1.027-1.022zM4.221 41.225A1.021 1.021 0 1 1 5.248 40.2a1.025 1.025 0 0 1-1.027 1.025zm3.057 9.834a1.021 1.021 0 1 1 1.027-1.021 1.026 1.026 0 0 1-1.027 1.021zm-3.057 9.834a1.021 1.021 0 1 1 1.027-1.021 1.025 1.025 0 0 1-1.027 1.021zM104.78 45.2a1.021 1.021 0 1 1 1.027-1.021 1.025 1.025 0 0 1-1.027 1.021zm0 0" class="cls-2" data-name="Path 9575"/>
        <path id="Path_9570" d="M188.241 155.434l-17.484 18.172-7.83-9.708-9.559 7.669 16.571 20.576 27.138-28.19zm-30.379 16.622l4.58-3.674 8.1 10.049 17.78-18.48 4.238 4.086-22.411 23.28zm0 0" class="cls-2" data-name="Path 9570" transform="translate(-120.716 -122.669)"/>
        <path id="Path_9573" d="M288.077 257.136l-1.862-2.595a38.258 38.258 0 0 0 14.521-20.862l3.079.845a41.449 41.449 0 0 1-15.738 22.611zm16.266-24.763l-3.12-.678c.215-.994.393-2.008.528-3.017l3.165.423a40.362 40.362 0 0 1-.573 3.272zm.807-5.473l-3.183-.254a38.59 38.59 0 0 0 .121-3.064h3.193a41.721 41.721 0 0 1-.13 3.318zm0 0" class="cls-1" data-name="Path 9573" transform="translate(-225.282 -176.43)"/>
    </g>
</svg>
