<svg xmlns="http://www.w3.org/2000/svg" width="72.668" height="99.941" viewBox="0 0 72.668 99.941">
    <defs>
        <style>
            .cls-1{fill:#060828}.cls-2{fill:#00c5de}
        </style>
    </defs>
    <g id="innovation" transform="translate(-13.333 -3.918)">
        <path id="Path_9530" d="M136.38 47.373a4.928 4.928 0 0 0-9.318.018h-10.214v-6.663h6.606a1.658 1.658 0 0 0 1.652-1.665v-6.97a5.008 5.008 0 0 0 3.02-6.377 4.944 4.944 0 0 0-6.323-3.046 5.011 5.011 0 0 0 0 9.423v5.3h-4.955v-3.328A1.658 1.658 0 0 0 115.2 32.4h-3.3v-8.636a5.008 5.008 0 0 0 3.02-6.377 4.944 4.944 0 0 0-6.323-3.046 5.011 5.011 0 0 0 0 9.423V32.4h-6.606V5.807a1.658 1.658 0 0 0-1.651-1.666C79.96 4.141 64 19.018 64 38.009c0 9.021 3.551 20.966 9.267 31.17 1.027 1.832 2.366 3.758 3.784 5.8 3 4.31 6.334 9.156 6.7 13.375a4.748 4.748 0 0 0-1.984 3.954 4.974 4.974 0 0 0 1.09 3.092 5.158 5.158 0 0 0-1.516 3.687 4.981 4.981 0 0 0 4.955 5h28.076a5.008 5.008 0 0 0 4.955-5.06v-.054a5 5 0 0 0-1.52-3.588 5.171 5.171 0 0 0 1.1-3.192 4.756 4.756 0 0 0-4.745-4.768h-12.177V55.719h3.3v5a1.658 1.658 0 0 0 1.651 1.666h4.955v1.973a5.008 5.008 0 0 0-3.02 6.377 4.944 4.944 0 0 0 6.323 3.046 5.011 5.011 0 0 0 0-9.422v-3.643a1.658 1.658 0 0 0-1.651-1.666h-4.955v-3.331h6.612a1.658 1.658 0 0 0 1.652-1.665v-3.332h10.214a4.935 4.935 0 0 0 6.319 3.024 5 5 0 0 0 2.995-6.373zm-12.925-21.637A1.666 1.666 0 1 1 121.8 27.4a1.659 1.659 0 0 1 1.655-1.664zm-43.7 47.327c-1.371-1.972-2.665-3.832-3.613-5.524-5.37-9.586-8.84-21.177-8.84-29.53 0-16.611 13.653-29.732 31.379-30.5v11.636c-.438.033-.886.073-1.364.132a1.656 1.656 0 0 0-1.417 1.31L95.4 23q-.622.149-1.24.337l-1.646-1.851a1.64 1.64 0 0 0-1.877-.421 24.8 24.8 0 0 0-5.2 3.06 1.674 1.674 0 0 0-.575 1.85l.758 2.329c-.312.3-.616.6-.91.917l-2.31-.765a1.653 1.653 0 0 0-1.834.579 25.05 25.05 0 0 0-3.036 5.243 1.675 1.675 0 0 0 .418 1.893l1.836 1.659q-.185.617-.331 1.238l-2.568.517a1.662 1.662 0 0 0-1.328 1.633V46.9a1.662 1.662 0 0 0 1.328 1.633l2.568.517q.146.62.331 1.238l-1.837 1.659a1.677 1.677 0 0 0-.418 1.893 25.066 25.066 0 0 0 3.036 5.243 1.651 1.651 0 0 0 1.834.579l2.307-.765c.3.314.6.621.91.917l-.758 2.326a1.675 1.675 0 0 0 .574 1.85 24.746 24.746 0 0 0 5.2 3.063 1.645 1.645 0 0 0 1.877-.421l1.646-1.851q.618.188 1.24.337l.5 2.412a1.657 1.657 0 0 0 1.416 1.311c.479.059.927.1 1.365.132v18.452h-11.7c-.676-4.909-4.12-9.902-7.221-14.361zm5.714-29a14.963 14.963 0 0 0 13.213 14.889v5.728l-.273-1.311a1.659 1.659 0 0 0-1.323-1.3 17.773 17.773 0 0 1-2.877-.782 1.666 1.666 0 0 0-.559-.1 1.644 1.644 0 0 0-1.23.555l-1.553 1.747a21.369 21.369 0 0 1-2.487-1.469l.717-2.2a1.676 1.676 0 0 0-.5-1.792 18.155 18.155 0 0 1-2.116-2.128 1.651 1.651 0 0 0-1.775-.5l-2.181.724a21.654 21.654 0 0 1-1.46-2.508l1.735-1.575a1.678 1.678 0 0 0 .452-1.8 18.27 18.27 0 0 1-.776-2.9A1.659 1.659 0 0 0 81.172 46l-2.309-.466v-2.949l2.309-.465a1.659 1.659 0 0 0 1.3-1.337 18.313 18.313 0 0 1 .776-2.9 1.676 1.676 0 0 0-.453-1.8l-1.73-1.573a21.929 21.929 0 0 1 1.46-2.51l2.182.724a1.652 1.652 0 0 0 1.775-.5 18.556 18.556 0 0 1 2.118-2.138 1.673 1.673 0 0 0 .5-1.788l-.716-2.2a21.5 21.5 0 0 1 2.485-1.472l1.553 1.747a1.648 1.648 0 0 0 1.789.457 17.731 17.731 0 0 1 2.877-.782 1.657 1.657 0 0 0 1.323-1.3l.274-1.311v5.726A14.963 14.963 0 0 0 85.47 44.059zm13.213-11.531v23.054a11.659 11.659 0 0 1 0-23.054zm17.341 66.553a1.66 1.66 0 0 1-1.652 1.666H86.3a1.69 1.69 0 0 1-1.653-1.725v-.058A1.66 1.66 0 0 1 86.3 97.3h28.076a1.69 1.69 0 0 1 1.653 1.725q-.005.031-.006.06zm-2.074-8.328a1.516 1.516 0 0 1 1.645 1.379 1.542 1.542 0 0 1 .006.169 1.66 1.66 0 0 1-1.652 1.666h-27.23a1.69 1.69 0 0 1-1.653-1.725v-.058a1.5 1.5 0 0 1 1.555-1.439l.1.007h27.231zm-.4-23.378a1.666 1.666 0 1 1-1.652 1.666 1.659 1.659 0 0 1 1.648-1.667zm-3.3-49.971a1.666 1.666 0 1 1-1.652 1.666 1.659 1.659 0 0 1 1.645-1.666zm3.3 34.979h-11.564V35.73h11.561zm18.167-1.666a1.666 1.666 0 1 1 1.652-1.666 1.659 1.659 0 0 1-1.656 1.667z" class="cls-1" data-name="Path 9530" transform="translate(-50.667 -.223)"/>
        <path id="Path_9531" d="M311.237 369.828a28.26 28.26 0 0 0-1.557 3.255l3.1 1.227a24.922 24.922 0 0 1 1.376-2.871z" class="cls-1" data-name="Path 9531" transform="translate(-245.606 -289.772)"/>
        <path id="Path_9532" d="M327.8 341.648c-.655.941-1.309 1.9-1.934 2.865l2.8 1.81a100.96 100.96 0 0 1 1.872-2.77z" class="cls-1" data-name="Path 9532" transform="translate(-258.445 -267.46)"/>
        <path id="Path_9533" d="M346.335 315.031a75.946 75.946 0 0 1-1.846 2.762l2.738 1.9a76.011 76.011 0 0 0 1.929-2.889z" class="cls-1" data-name="Path 9533" transform="translate(-273.214 -246.384)"/>
        <path id="Path_9534" d="M362.666 287.148q-.717 1.5-1.5 2.964l2.939 1.572q.818-1.531 1.567-3.1z" class="cls-1" data-name="Path 9534" transform="translate(-286.441 -224.307)"/>
        <path id="Path_9535" d="M376.157 257.789c-.387 1.03-.8 2.062-1.236 3.086l3.068 1.305q.681-1.6 1.288-3.219z" class="cls-1" data-name="Path 9535" transform="translate(-297.348 -201.06)"/>
        <path id="Path_9536" d="M402.84 165.211l-3.333.026v.306c0 .929-.043 1.917-.129 2.933l3.322.28c.094-1.108.141-2.189.141-3.213z" class="cls-1" data-name="Path 9536" transform="translate(-316.842 -127.757)"/>
        <path id="Path_9537" d="M399.585 131.156l-3.245.759a28.822 28.822 0 0 1 .555 3.159l3.311-.394a32.314 32.314 0 0 0-.621-3.524z" class="cls-1" data-name="Path 9537" transform="translate(-314.436 -100.793)"/>
        <path id="Path_9538" d="M389.031 98.828l-3 1.458a29.151 29.151 0 0 1 1.244 2.959l3.14-1.116a32.069 32.069 0 0 0-1.384-3.301z" class="cls-1" data-name="Path 9538" transform="translate(-306.162 -75.196)"/>
        <path id="Path_9539" d="M372.2 69.859l-2.611 2.074a30.316 30.316 0 0 1 1.864 2.62l2.817-1.781a33.633 33.633 0 0 0-2.07-2.913z" class="cls-1" data-name="Path 9539" transform="translate(-293.118 -52.25)"/>
        <path id="Path_9540" d="M350.07 45.445l-2.124 2.568a31.472 31.472 0 0 1 2.375 2.179l2.376-2.337a34.984 34.984 0 0 0-2.627-2.41z" class="cls-1" data-name="Path 9540" transform="translate(-275.956 -32.922)"/>
        <path id="Path_9541" d="M323.812 26.375l-1.585 2.933a33.573 33.573 0 0 1 2.769 1.673l1.86-2.767a37.307 37.307 0 0 0-3.044-1.839z" class="cls-1" data-name="Path 9541" transform="translate(-255.558 -17.825)"/>
        <path id="Path_9542" d="M294.642 13.1l-1.009 3.177c1.038.329 2.06.706 3.037 1.121l1.3-3.066a38.342 38.342 0 0 0-3.328-1.232z" class="cls-1" data-name="Path 9542" transform="translate(-232.878 -7.317)"/>
        <path id="Path_9543" d="M263.664 5.758l-.426 3.307c1.075.138 2.151.326 3.2.558l.721-3.255a41.017 41.017 0 0 0-3.495-.61z" class="cls-1" data-name="Path 9543" transform="translate(-208.771 -1.503)"/>
        <path id="Path_9530-2" d="M123.455 25.736A1.666 1.666 0 1 1 121.8 27.4a1.659 1.659 0 0 1 1.655-1.664zM85.47 44.059a14.963 14.963 0 0 0 13.212 14.893v5.728l-.273-1.311a1.659 1.659 0 0 0-1.323-1.3 17.773 17.773 0 0 1-2.877-.782 1.666 1.666 0 0 0-.559-.1 1.644 1.644 0 0 0-1.23.555l-1.553 1.747a21.369 21.369 0 0 1-2.487-1.469l.717-2.2a1.676 1.676 0 0 0-.5-1.792 18.155 18.155 0 0 1-2.116-2.128 1.651 1.651 0 0 0-1.775-.5l-2.181.724a21.654 21.654 0 0 1-1.46-2.508l1.735-1.575a1.678 1.678 0 0 0 .452-1.8 18.27 18.27 0 0 1-.776-2.9A1.659 1.659 0 0 0 81.172 46l-2.309-.466v-2.949l2.309-.465a1.659 1.659 0 0 0 1.3-1.337 18.313 18.313 0 0 1 .776-2.9 1.676 1.676 0 0 0-.453-1.8l-1.73-1.573a21.929 21.929 0 0 1 1.46-2.51l2.182.724a1.652 1.652 0 0 0 1.775-.5 18.556 18.556 0 0 1 2.118-2.138 1.673 1.673 0 0 0 .5-1.788l-.716-2.2a21.5 21.5 0 0 1 2.485-1.472l1.553 1.747a1.648 1.648 0 0 0 1.789.457 17.731 17.731 0 0 1 2.877-.782 1.657 1.657 0 0 0 1.323-1.3l.274-1.311v5.726A14.963 14.963 0 0 0 85.47 44.059zm28.076 23.32a1.666 1.666 0 1 1-1.652 1.666 1.659 1.659 0 0 1 1.651-1.667zm-3.3-49.971a1.666 1.666 0 1 1-1.652 1.666 1.659 1.659 0 0 1 1.648-1.666zm21.47 33.314a1.666 1.666 0 1 1 1.652-1.666 1.659 1.659 0 0 1-1.656 1.666z" class="cls-2" data-name="Path 9530" transform="translate(-50.667 -.223)"/>
    </g>
</svg>
