<svg xmlns="http://www.w3.org/2000/svg" xmlns:xlink="http://www.w3.org/1999/xlink" width="296" height="42" viewBox="0 0 296 42">
  <defs>
    <clipPath id="clip-logo">
      <rect width="296" height="42"/>
    </clipPath>
  </defs>
  <g id="logo" clip-path="url(#clip-logo)">
    <g id="inx-logo" transform="translate(-12 -1.5)">
      <path id="Path_1" data-name="Path 1" d="M38.9,18.4a5.61,5.61,0,0,0-4.1-2.6A6.062,6.062,0,0,0,30,17a6.27,6.27,0,0,0-2.6,4.1,6.407,6.407,0,0,0,1.1,4.8A6.339,6.339,0,0,0,40,23.3,7.03,7.03,0,0,0,38.9,18.4Z" fill="#00c5de"/>
      <path id="Path_2" data-name="Path 2" d="M26.1,36.1a76.52,76.52,0,0,0,6.5,6.2,2.112,2.112,0,0,0,1,.4,2.1,2.1,0,0,0,1.1-.4,63.493,63.493,0,0,0,6.5-6.2,1.528,1.528,0,0,0,.2-2c-.4-.5-.8-.9-1.2-1.4a1.091,1.091,0,0,0-1.7.2c-.6.6-1.1,1.2-1.7,1.8a4.734,4.734,0,0,1-6.3,0c-.6-.6-1.1-1.2-1.7-1.8a1.285,1.285,0,0,0-1.8-.2,17.41,17.41,0,0,1-1.2,1.4A1.676,1.676,0,0,0,26.1,36.1Z" fill="#000222"/>
      <path id="Path_3" data-name="Path 3" d="M47.6,29.6a76.52,76.52,0,0,0,6.2-6.5,2.1,2.1,0,0,0,.4-1.1,2.1,2.1,0,0,0-.4-1.1,63.493,63.493,0,0,0-6.2-6.5,1.528,1.528,0,0,0-2-.2c-.5.4-.9.8-1.4,1.2a1.091,1.091,0,0,0,.2,1.7c.6.6,1.2,1.1,1.8,1.7a4.734,4.734,0,0,1,0,6.3c-.6.6-1.2,1.1-1.8,1.7a1.168,1.168,0,0,0-.2,1.7,17.41,17.41,0,0,1,1.4,1.2A1.418,1.418,0,0,0,47.6,29.6Z" fill="#000222"/>
      <path id="Path_4" data-name="Path 4" d="M41.2,8.1a63.493,63.493,0,0,0-6.5-6.2,2.112,2.112,0,0,0-1-.4,2.1,2.1,0,0,0-1.1.4,63.493,63.493,0,0,0-6.5,6.2,1.528,1.528,0,0,0-.2,2c.4.5.8.9,1.2,1.4a1.091,1.091,0,0,0,1.7-.2c.6-.6,1.1-1.2,1.7-1.8a4.717,4.717,0,0,1,6.2.1c.6.6,1.1,1.2,1.7,1.8a1.168,1.168,0,0,0,1.7.2c.4-.5.8-.9,1.2-1.4A1.788,1.788,0,0,0,41.2,8.1Z" fill="#000222"/>
      <path id="Path_5" data-name="Path 5" d="M19.6,14.6a76.52,76.52,0,0,0-6.2,6.5,2.112,2.112,0,0,0-.4,1,2.1,2.1,0,0,0,.4,1.1,63.493,63.493,0,0,0,6.2,6.5,1.528,1.528,0,0,0,2,.2A17.41,17.41,0,0,0,23,28.7a1.091,1.091,0,0,0-.2-1.7c-.6-.6-1.2-1.1-1.8-1.7A4.734,4.734,0,0,1,21,19c.6-.6,1.2-1.1,1.8-1.7a1.168,1.168,0,0,0,.2-1.7,17.41,17.41,0,0,1-1.4-1.2A1.528,1.528,0,0,0,19.6,14.6Z" fill="#000222"/>
      <path id="Path_6" data-name="Path 6" d="M182.2,31.4a1.025,1.025,0,0,1,1-1h6.9a2.13,2.13,0,0,0,1.6-.7,2.36,2.36,0,0,0,.7-1.6,2.13,2.13,0,0,0-.7-1.6,2.36,2.36,0,0,0-1.6-.7h-3.7a4.671,4.671,0,0,1-1.7-.3,4.507,4.507,0,0,1-1.4-1,7.1,7.1,0,0,1-1-1.4,4.967,4.967,0,0,1,0-3.4,3.587,3.587,0,0,1,1-1.4,7.1,7.1,0,0,1,1.4-1,4.671,4.671,0,0,1,1.7-.3h6.5a.99.99,0,0,1,.7,1.7.908.908,0,0,1-.7.3h-6.5a2.136,2.136,0,0,0-1.7.8,2.342,2.342,0,0,0-.7,1.7,2.06,2.06,0,0,0,.7,1.7,2.342,2.342,0,0,0,1.7.7h3.7a4.146,4.146,0,0,1,1.6.3,4.194,4.194,0,0,1,1.4.9,3.39,3.39,0,0,1,.9,1.4,4.529,4.529,0,0,1,.3,1.6,4.146,4.146,0,0,1-.3,1.6,4.2,4.2,0,0,1-.9,1.4,3.39,3.39,0,0,1-1.4.9,4.529,4.529,0,0,1-1.6.3h-6.9a.908.908,0,0,1-.7-.3.713.713,0,0,1-.3-.6ZM204.3,17a7.173,7.173,0,0,1,2.9.6,8.738,8.738,0,0,1,4.1,4.1,7.306,7.306,0,0,1,.6,3,7.173,7.173,0,0,1-.6,2.9,7.759,7.759,0,0,1-1.6,2.4,8.068,8.068,0,0,1-2.4,1.7,7.306,7.306,0,0,1-3,.6,7.653,7.653,0,0,1-3-.6,7.759,7.759,0,0,1-2.4-1.6,8.068,8.068,0,0,1-1.7-2.4,7.455,7.455,0,0,1-.6-3.1,7.653,7.653,0,0,1,.6-3,7.759,7.759,0,0,1,1.6-2.4,10.393,10.393,0,0,1,2.4-1.7,10.588,10.588,0,0,1,3.1-.5Zm-5.8,7.7a5.382,5.382,0,0,0,.4,2.2,5.515,5.515,0,0,0,3,3,6.25,6.25,0,0,0,4.4,0,5.515,5.515,0,0,0,3-3,5.381,5.381,0,0,0,.4-2.2,5.382,5.382,0,0,0-.4-2.2,5.515,5.515,0,0,0-3-3,6.25,6.25,0,0,0-4.4,0,5.515,5.515,0,0,0-3,3,7.8,7.8,0,0,0-.4,2.2Zm22.1,6.7a1.025,1.025,0,0,1-1,1,4.265,4.265,0,0,1-2.4-.6,5.34,5.34,0,0,1-1.6-1.3,5.559,5.559,0,0,1-.9-1.7,4.973,4.973,0,0,1-.3-1.6V12.8a1,1,0,0,1,2,0V27.2a2.814,2.814,0,0,0,.1.8,2.355,2.355,0,0,0,.5,1,3.178,3.178,0,0,0,1,1,2.861,2.861,0,0,0,1.7.4.908.908,0,0,1,.7.3,1.445,1.445,0,0,1,.2.7Zm1.8-13.5a1,1,0,0,1,2,0v6.8a5.382,5.382,0,0,0,.4,2.2,5.515,5.515,0,0,0,3,3,6.25,6.25,0,0,0,4.4,0,5.515,5.515,0,0,0,3-3,5.381,5.381,0,0,0,.4-2.2V17.9a1,1,0,0,1,2,0v6.8a7.306,7.306,0,0,1-.6,3,7.354,7.354,0,0,1-4,4,7.8,7.8,0,0,1-6,0,7.354,7.354,0,0,1-4-4,7.306,7.306,0,0,1-.6-3V17.9Zm18-5.1a1,1,0,0,1,2,0v4.1h7a1.136,1.136,0,0,1,.8.3.967.967,0,0,1,0,1.4,1.135,1.135,0,0,1-.8.3h-7v5.9a5.382,5.382,0,0,0,.4,2.2,5.515,5.515,0,0,0,3,3,6.25,6.25,0,0,0,4.4,0,5.675,5.675,0,0,0,1.8-1.2.908.908,0,0,1,.7-.3.844.844,0,0,1,.7.2.864.864,0,0,1,.3.6.844.844,0,0,1-.2.7,7.386,7.386,0,0,1-2.5,1.7,8.149,8.149,0,0,1-3.1.6,7.306,7.306,0,0,1-3-.6,7.354,7.354,0,0,1-4-4,7.306,7.306,0,0,1-.6-3V12.8Zm15.2,5.1a1,1,0,0,1,2,0V31.3a1,1,0,0,1-2,0V17.9Zm-.3-4.4a.975.975,0,0,1,.4-.9,1.222,1.222,0,0,1,.9-.4.975.975,0,0,1,.9.4,1.222,1.222,0,0,1,.4.9.975.975,0,0,1-.4.9,1.222,1.222,0,0,1-.9.4.975.975,0,0,1-.9-.4.975.975,0,0,1-.4-.9ZM267.8,17a7.173,7.173,0,0,1,2.9.6,8.738,8.738,0,0,1,4.1,4.1,7.306,7.306,0,0,1,.6,3,7.173,7.173,0,0,1-.6,2.9,7.759,7.759,0,0,1-1.6,2.4,8.068,8.068,0,0,1-2.4,1.7,7.8,7.8,0,0,1-6,0,7.759,7.759,0,0,1-2.4-1.6,10.392,10.392,0,0,1-1.7-2.4,7.455,7.455,0,0,1-.6-3.1,7.653,7.653,0,0,1,.6-3,7.759,7.759,0,0,1,1.6-2.4,10.393,10.393,0,0,1,2.4-1.7,10.069,10.069,0,0,1,3.1-.5ZM262,24.7a5.382,5.382,0,0,0,.4,2.2,5.516,5.516,0,0,0,3,3,6.25,6.25,0,0,0,4.4,0,5.516,5.516,0,0,0,3-3,5.382,5.382,0,0,0,.4-2.2,5.382,5.382,0,0,0-.4-2.2,5.516,5.516,0,0,0-3-3,6.25,6.25,0,0,0-4.4,0,5.516,5.516,0,0,0-3,3,7.8,7.8,0,0,0-.4,2.2Zm15.8-.1a7.306,7.306,0,0,1,.6-3,7.354,7.354,0,0,1,4-4,7.8,7.8,0,0,1,6,0,7.354,7.354,0,0,1,4,4,7.306,7.306,0,0,1,.6,3v6.8a1,1,0,0,1-2,0V24.6a5.382,5.382,0,0,0-.4-2.2,5.516,5.516,0,0,0-3-3,6.25,6.25,0,0,0-4.4,0,5.516,5.516,0,0,0-3,3,5.382,5.382,0,0,0-.4,2.2v6.8a1,1,0,0,1-2,0V24.6Zm18.1,6.8a1.025,1.025,0,0,1,1-1h6.9a2.13,2.13,0,0,0,1.6-.7,2.36,2.36,0,0,0,.7-1.6,2.13,2.13,0,0,0-.7-1.6,2.36,2.36,0,0,0-1.6-.7h-3.7a4.671,4.671,0,0,1-1.7-.3,4.507,4.507,0,0,1-1.4-1,7.1,7.1,0,0,1-1-1.4,4.967,4.967,0,0,1,0-3.4,3.588,3.588,0,0,1,1-1.4,7.1,7.1,0,0,1,1.4-1,4.671,4.671,0,0,1,1.7-.3h6.5a.99.99,0,0,1,.7,1.7.908.908,0,0,1-.7.3h-6.5a2.136,2.136,0,0,0-1.7.8,2.342,2.342,0,0,0-.7,1.7,2.06,2.06,0,0,0,.7,1.7,2.342,2.342,0,0,0,1.7.7h3.7a4.146,4.146,0,0,1,1.6.3,4.194,4.194,0,0,1,1.4.9,3.39,3.39,0,0,1,.9,1.4,4.529,4.529,0,0,1,.3,1.6,4.146,4.146,0,0,1-.3,1.6,4.2,4.2,0,0,1-.9,1.4,3.39,3.39,0,0,1-1.4.9,4.529,4.529,0,0,1-1.6.3h-6.9a.908.908,0,0,1-.7-.3A.713.713,0,0,1,295.9,31.4Z" fill="#000222"/>
      <path id="Path_7" data-name="Path 7" d="M170.8,32.1a1.08,1.08,0,0,1-.7.3.908.908,0,0,1-.7-.3l-5.9-6-5.9,6a.99.99,0,1,1-1.4-1.4l5.9-6-5.9-6a1.08,1.08,0,0,1-.3-.7.908.908,0,0,1,.3-.7,1.08,1.08,0,0,1,.7-.3.908.908,0,0,1,.7.3l5.9,6,5.9-6a.99.99,0,1,1,1.4,1.4l-5.9,6,6,6a.908.908,0,0,1,.3.7A2.507,2.507,0,0,1,170.8,32.1Z" fill="#000222"/>
      <path id="Path_8" data-name="Path 8" d="M140.5,12.8a1,1,0,0,1,2,0v4.1h7a1.136,1.136,0,0,1,.8.3.967.967,0,0,1,0,1.4,1.135,1.135,0,0,1-.8.3h-7v5.9a5.382,5.382,0,0,0,.4,2.2,5.515,5.515,0,0,0,3,3,6.25,6.25,0,0,0,4.4,0,5.675,5.675,0,0,0,1.8-1.2.908.908,0,0,1,.7-.3.844.844,0,0,1,.7.2.864.864,0,0,1,.3.6.844.844,0,0,1-.2.7,7.386,7.386,0,0,1-2.5,1.7,8.149,8.149,0,0,1-3.1.6,7.306,7.306,0,0,1-3-.6,7.354,7.354,0,0,1-4-4,7.306,7.306,0,0,1-.6-3V12.8Z" fill="#000222"/>
      <path id="Path_9" data-name="Path 9" d="M135.6,13.5a.975.975,0,0,1,.4-.9,1.222,1.222,0,0,1,.9-.4.975.975,0,0,1,.9.4,1.222,1.222,0,0,1,.4.9.975.975,0,0,1-.4.9,1.222,1.222,0,0,1-.9.4.975.975,0,0,1-.9-.4A.975.975,0,0,1,135.6,13.5Z" fill="#000222"/>
      <path id="Path_10" data-name="Path 10" d="M135.9,17.9a1,1,0,0,1,2,0V31.3a1,1,0,0,1-2,0Z" fill="#000222"/>
      <path id="Path_11" data-name="Path 11" d="M125.4,24.6a7.173,7.173,0,0,1,.6-2.9,7.76,7.76,0,0,1,1.6-2.4,10.393,10.393,0,0,1,2.4-1.7,7.173,7.173,0,0,1,2.9-.6,1.136,1.136,0,0,1,.8.3.967.967,0,0,1,0,1.4,1.135,1.135,0,0,1-.8.3,5.45,5.45,0,0,0-2.2.5,5.515,5.515,0,0,0-3,3,5.381,5.381,0,0,0-.4,2.2v6.8a1,1,0,0,1-2,0V24.6Z" fill="#000222"/>
      <path id="Path_12" data-name="Path 12" d="M115.5,19a4.477,4.477,0,0,0-2,.4,5.854,5.854,0,0,0-1.7,1,4.427,4.427,0,0,0-1.2,1.5,6.7,6.7,0,0,0-.7,1.8h11.2a4.842,4.842,0,0,0-.7-1.8,4.708,4.708,0,0,0-1.3-1.5,9.5,9.5,0,0,0-1.7-1,3.807,3.807,0,0,0-1.9-.4Zm-5.6,6.6a4.383,4.383,0,0,0,.7,1.9,4.708,4.708,0,0,0,1.3,1.5,5.854,5.854,0,0,0,1.7,1,6.465,6.465,0,0,0,2,.4,5.381,5.381,0,0,0,2.2-.4,5.675,5.675,0,0,0,1.8-1.2.99.99,0,1,1,1.4,1.4,6.6,6.6,0,0,1-2.4,1.7,9.427,9.427,0,0,1-3,.5,7.653,7.653,0,0,1-3-.6,7.759,7.759,0,0,1-2.4-1.6,8.068,8.068,0,0,1-1.7-2.4,7.455,7.455,0,0,1-.6-3.1,7.653,7.653,0,0,1,.6-3,7.76,7.76,0,0,1,1.6-2.4,10.392,10.392,0,0,1,2.4-1.7,10.053,10.053,0,0,1,3.1-.7,7.173,7.173,0,0,1,2.9.6,7.759,7.759,0,0,1,2.4,1.6,8.068,8.068,0,0,1,1.7,2.4,9.474,9.474,0,0,1,.7,2.9c0,.4,0,.6-.3.8a1.08,1.08,0,0,1-.7.3H109.9v.1Z" fill="#000222"/>
      <path id="Path_13" data-name="Path 13" d="M90.6,12.8a1,1,0,0,1,2,0v6.7a7.9,7.9,0,0,1,2.5-1.9,6.83,6.83,0,0,1,3.2-.7,7.306,7.306,0,0,1,3,.6,7.354,7.354,0,0,1,4,4,7.306,7.306,0,0,1,.6,3v6.8a1,1,0,0,1-2,0V24.5a5.381,5.381,0,0,0-.4-2.2,5.515,5.515,0,0,0-3-3,6.25,6.25,0,0,0-4.4,0,5.675,5.675,0,0,0-1.8,1.2,6.569,6.569,0,0,0-1.2,1.7,5.374,5.374,0,0,0-.5,2.1v7a1,1,0,0,1-2,0V12.8Z" fill="#000222"/>
      <path id="Path_14" data-name="Path 14" d="M72.5,24.6a7.306,7.306,0,0,1,.6-3,7.354,7.354,0,0,1,4-4,7.8,7.8,0,0,1,6,0,7.354,7.354,0,0,1,4,4,7.306,7.306,0,0,1,.6,3v6.8a1,1,0,0,1-2,0V24.6a5.381,5.381,0,0,0-.4-2.2,5.515,5.515,0,0,0-3-3,6.25,6.25,0,0,0-4.4,0,5.515,5.515,0,0,0-3,3,5.381,5.381,0,0,0-.4,2.2v6.8a1,1,0,0,1-2,0Z" fill="#000222"/>
      <path id="Path_15" data-name="Path 15" d="M67.6,13.5a.975.975,0,0,1,.4-.9,1.222,1.222,0,0,1,.9-.4.975.975,0,0,1,.9.4,1.222,1.222,0,0,1,.4.9.975.975,0,0,1-.4.9,1.222,1.222,0,0,1-.9.4.975.975,0,0,1-.9-.4A.975.975,0,0,1,67.6,13.5Z" fill="#000222"/>
      <path id="Path_16" data-name="Path 16" d="M67.9,17.9a1,1,0,0,1,2,0V31.3a1,1,0,0,1-2,0Z" fill="#000222"/>
    </g>
  </g>
</svg>
